
          <svg xmlns="http://www.w3.org/2000/svg" xmlns:cc="http://creativecommons.org/ns#" xmlns:rdf="http://www.w3.org/1999/02/22-rdf-syntax-ns#" version="1.1" width="4579.83349609375" height="614.9000244140625">
            <defs>
              <style type="text/css">svg {
          background-color: #fff; }
        
        .root text,
        .root tspan {
          font: 12px Arial; }
        
        .root path {
          fill-opacity: 0;
          stroke-width: 2px;
          stroke: #000; }
        
        .root circle {
          fill: #6b6659;
          stroke-width: 2px;
          stroke: #000; }
        
        .anchor text, .any-character text {
          fill: #fff; }
        
        .anchor rect, .any-character rect {
          fill: #6b6659; }
        
        .escape text, .charset-escape text, .literal text {
          fill: #000; }
        
        .escape rect, .charset-escape rect {
          fill: #bada55; }
        
        .literal rect {
          fill: #dae9e5; }
        
        .charset .charset-box {
          fill: #cbcbba; }
        
        .subexp .subexp-label tspan,
        .charset .charset-label tspan,
        .match-fragment .repeat-label tspan {
          font-size: 10px; }
        
        .repeat-label {
          cursor: help; }
        
        .subexp .subexp-label tspan,
        .charset .charset-label tspan {
          dominant-baseline: text-after-edge; }
        
        .subexp .subexp-box {
          stroke: #908c83;
          stroke-dasharray: 6,2;
          stroke-width: 2px;
          fill-opacity: 0; }
        
        .quote {
          fill: #908c83; }
        </style>
            </defs>
            <metadata>
              <rdf:rdf>
                <cc:license rdf:about="http://creativecommons.org/licenses/by/3.0/">
                  <cc:permits rdf:resource="http://creativecommons.org/ns#Reproduction"></cc:permits>
                  <cc:permits rdf:resource="http://creativecommons.org/ns#Distribution"></cc:permits>
                  <cc:requires rdf:resource="http://creativecommons.org/ns#Notice"></cc:requires>
                  <cc:requires rdf:resource="http://creativecommons.org/ns#Attribution"></cc:requires>
                  <cc:permits rdf:resource="http://creativecommons.org/ns#DerivativeWorks"></cc:permits>
                </cc:license>
              </rdf:rdf>
            </metadata>
          <desc>Created with Snap</desc><g class="root" transform="matrix(1,0,0,1,15,10)"><g class="regexp match" transform="matrix(1,0,0,1,10,0)"><path d="M1337.2168,308.44999980926514H1397.2168M4383.833743359375,308.4500120282173H4418.8337M4462.8337,308.44999980926514H4482.8337"></path><g class="match-fragment subexp" transform="matrix(1,0,0,1,0,161.45)"><rect class="subexp-box" rx="3" ry="3" transform="matrix(1,0,0,1,0,12)" width="1362.216796875" height="258"></rect><text x="0" y="0" class="subexp-label" transform="matrix(1,0,0,1,0,12)"><tspan>group #1</tspan></text><g class="regexp match" transform="matrix(1,0,0,1,10,22)"><path d="M32,124.99999980926515H52M308.8500061035156,124.99999542236328H338.85M798.3667236328125,125H843.3667M1152.0334,124.99999980926515H1237.8835M1275.2168320617675,124.99999980926515H1295.2168"></path><g class="match-fragment literal" transform="matrix(1,0,0,1,0,112.8)"><g class="label"><rect width="32" height="24.399999618530273" rx="3" ry="3"></rect><text x="0" y="0" transform="matrix(1,0,0,1,5,17.2)"><tspan class="quote">“</tspan><tspan>art</tspan><tspan class="quote">”</tspan></text></g></g><g class="match-fragment subexp" transform="matrix(1,0,0,1,42,30.7)"><rect class="subexp-box" rx="3" ry="3" transform="matrix(1,0,0,1,0,12)" width="276.8500061035156" height="164.59999084472656"></rect><text x="0" y="0" class="subexp-label" transform="matrix(1,0,0,1,0,12)"><tspan>group #2</tspan></text><g class="regexp" transform="matrix(1,0,0,1,10,22)"><path d="M10,54.19999980926514q0,-10 10,-10M246.85000610351562,54.19999980926514q0,-10 -10,-10M10,122.39999980926513q0,10 10,10M246.85000610351562,122.39999980926513q0,10 -10,10M0,72.29999542236328q10,0 10,-10V54.19999980926514M256.8500061035156,72.29999542236328q-10,0 -10,-10V54.19999980926514M0,72.29999542236328q10,0 10,10V122.39999980926513M256.8500061035156,72.29999542236328q-10,0 -10,10V122.39999980926513"></path><g class="regexp-matches" transform="matrix(1,0,0,1,20,0)"><path d="M0,44.19999980926514h10M166,44.19999980926514H216.85000610351562M0,132.39999980926513h92.7583M124.09163396911622,132.39999980926513H216.85000610351562"></path><g class="match" transform="matrix(1,0,0,1,0,0)"><path d="M42,44.19999980926514H92"></path><g class="match-fragment" transform="matrix(1,0,0,1,0,32)"><path d="M10,12.199999809265137q-10,0 -10,10v2.1999998092651367q0,10 10,10h32q10,0 10,-10v-2.1999998092651367q0,-10 -10,-10M52,27.199999809265137l5,-5m-5,5l-5,-5"></path><g class="escape" transform="matrix(1,0,0,1,10,0)"><g class="label"><rect width="32" height="24.399999618530273" rx="3" ry="3"></rect><text x="0" y="0" transform="matrix(1,0,0,1,5,17.2)"><tspan>digit</tspan></text></g></g></g><g class="match-fragment" transform="matrix(1,0,0,1,67,0)"><path d="M0,44.19999980926514q10,0 10,-10v-24.19999998807907q0,-10 10,-10h109.8499984741211q10,0 10,10v24.19999998807907q0,10 10,10M15,44.19999980926514q-10,0 -10,10v36.60000306367874q0,10 10,10h119.8499984741211q10,0 10,-10v-36.60000306367874q0,-10 -10,-10M144.8499984741211,59.19999980926514l5,-5m-5,5l-5,-5"></path><g class="subexp" transform="matrix(1,0,0,1,15,10)"><rect class="subexp-box" rx="3" ry="3" transform="matrix(1,0,0,1,0,12)" width="119.8499984741211" height="68.80000305175781"></rect><text x="0" y="0" class="subexp-label" transform="matrix(1,0,0,1,0,12)"><tspan>group #3</tspan></text><g class="regexp match" transform="matrix(1,0,0,1,10,22)"><path d="M22,12.199999809265137H42"></path><g class="match-fragment literal" transform="matrix(1,0,0,1,0,0)"><g class="label"><rect width="22" height="24.399999618530273" rx="3" ry="3"></rect><text x="0" y="0" transform="matrix(1,0,0,1,5,17.2)"><tspan class="quote">“</tspan><tspan>-</tspan><tspan class="quote">”</tspan></text></g></g><g class="match-fragment" transform="matrix(1,0,0,1,32,0)"><path d="M10,12.199999809265137q-10,0 -10,10v2.1999998092651367q0,10 10,10h32q10,0 10,-10v-2.1999998092651367q0,-10 -10,-10M52,27.199999809265137l5,-5m-5,5l-5,-5"></path><g class="escape" transform="matrix(1,0,0,1,10,0)"><g class="label"><rect width="32" height="24.399999618530273" rx="3" ry="3"></rect><text x="0" y="0" transform="matrix(1,0,0,1,5,17.2)"><tspan>digit</tspan></text></g></g><text x="0" y="0" class="repeat-label" transform="matrix(1,0,0,1,0,46.4)"><tspan>at most 2 times</tspan><title><text x="0" y="0">repeats at most 3 times in total</text></title></text></g></g></g><text x="0" y="0" class="repeat-label" transform="matrix(1,0,0,1,77,112.8)"><tspan>at most 2 times</tspan><title><text x="0" y="0">repeats at most 3 times in total</text></title></text></g></g><g class="match match-fragment literal" transform="matrix(1,0,0,1,92.7583,120.2)"><g class="label"><rect width="31.33333396911621" height="24.399999618530273" rx="3" ry="3"></rect><text x="0" y="0" transform="matrix(1,0,0,1,5,17.2)"><tspan class="quote">“</tspan><tspan>1u</tspan><tspan class="quote">”</tspan></text></g></g></g></g></g><g class="match-fragment subexp" transform="matrix(1,0,0,1,328.85,0)"><rect class="subexp-box" rx="3" ry="3" transform="matrix(1,0,0,1,0,12)" width="479.5167236328125" height="226"></rect><text x="0" y="0" class="subexp-label" transform="matrix(1,0,0,1,0,12)"><tspan>group #4</tspan></text><g class="regexp" transform="matrix(1,0,0,1,10,22)"><path d="M10,22.199999809265137q0,-10 10,-10M449.5167236328125,22.199999809265137q0,-10 -10,-10M10,113.69999980926514q0,10 10,10M449.5167236328125,113.69999980926514q0,10 -10,10M0,103q10,0 10,-10V22.199999809265137M459.5167236328125,103q-10,0 -10,-10V22.199999809265137M0,103q10,0 10,10V113.69999980926514M459.5167236328125,103q-10,0 -10,10V113.69999980926514"></path><g class="regexp-matches" transform="matrix(1,0,0,1,20,0)"><path d="M0,12.199999809265137h189.425M230.09166793823243,12.199999809265137H419.5167236328125M0,123.69999980926514h0M409.5167061035156,123.69999980926514H419.5167236328125"></path><g class="match match-fragment literal" transform="matrix(1,0,0,1,189.425,0)"><g class="label"><rect width="40.66666793823242" height="24.399999618530273" rx="3" ry="3"></rect><text x="0" y="0" transform="matrix(1,0,0,1,5,17.2)"><tspan class="quote">“</tspan><tspan>_cpt</tspan><tspan class="quote">”</tspan></text></g></g><g class="match" transform="matrix(1,0,0,1,0,29.4)"><path d="M24.66666603088379,94.29999980926513H44.6667M122.66669999999999,94.29999961853028H152.6667"></path><g class="match-fragment literal" transform="matrix(1,0,0,1,0,82.1)"><g class="label"><rect width="24.666666984558105" height="24.399999618530273" rx="3" ry="3"></rect><text x="0" y="0" transform="matrix(1,0,0,1,5,17.2)"><tspan class="quote">“</tspan><tspan>_</tspan><tspan class="quote">”</tspan></text></g></g><g class="match-fragment subexp" transform="matrix(1,0,0,1,34.6667,45.4)"><rect class="subexp-box" rx="3" ry="3" transform="matrix(1,0,0,1,0,12)" width="98" height="73.79999923706055"></rect><text x="0" y="0" class="subexp-label" transform="matrix(1,0,0,1,0,12)"><tspan>group #5</tspan></text><g class="regexp" transform="matrix(1,0,0,1,10,22)"><path d="M0,26.899999618530273c10,0 10,-14.699999809265137 20,-14.699999809265137M78,26.899999618530273c-10,0 -10,-14.699999809265137 -20,-14.699999809265137M0,26.899999618530273c10,0 10,14.700000190734862 20,14.700000190734862M78,26.899999618530273c-10,0 -10,14.700000190734862 -20,14.700000190734862"></path><g class="regexp-matches" transform="matrix(1,0,0,1,20,0)"><path d="M0,12.199999809265137h1.3333M36.66663206176758,12.199999809265137H38M0,41.599999809265135h0M38,41.599999809265135H38"></path><g class="match match-fragment literal" transform="matrix(1,0,0,1,1.3333,0)"><g class="label"><rect width="35.33333396911621" height="24.399999618530273" rx="3" ry="3"></rect><text x="0" y="0" transform="matrix(1,0,0,1,5,17.2)"><tspan class="quote">“</tspan><tspan>par</tspan><tspan class="quote">”</tspan></text></g></g><g class="match match-fragment literal" transform="matrix(1,0,0,1,0,29.4)"><g class="label"><rect width="38" height="24.399999618530273" rx="3" ry="3"></rect><text x="0" y="0" transform="matrix(1,0,0,1,5,17.2)"><tspan class="quote">“</tspan><tspan>dpg</tspan><tspan class="quote">”</tspan></text></g></g></g></g></g><g class="match-fragment subexp" transform="matrix(1,0,0,1,142.6667,0)"><rect class="subexp-box" rx="3" ry="3" transform="matrix(1,0,0,1,0,12)" width="276.8500061035156" height="164.59999084472656"></rect><text x="0" y="0" class="subexp-label" transform="matrix(1,0,0,1,0,12)"><tspan>group #6</tspan></text><g class="regexp" transform="matrix(1,0,0,1,10,22)"><path d="M10,54.19999980926514q0,-10 10,-10M246.85000610351562,54.19999980926514q0,-10 -10,-10M10,122.39999980926513q0,10 10,10M246.85000610351562,122.39999980926513q0,10 -10,10M0,72.29999542236328q10,0 10,-10V54.19999980926514M256.8500061035156,72.29999542236328q-10,0 -10,-10V54.19999980926514M0,72.29999542236328q10,0 10,10V122.39999980926513M256.8500061035156,72.29999542236328q-10,0 -10,10V122.39999980926513"></path><g class="regexp-matches" transform="matrix(1,0,0,1,20,0)"><path d="M0,44.19999980926514h10M166,44.19999980926514H216.85000610351562M0,132.39999980926513h92.7583M124.09163396911622,132.39999980926513H216.85000610351562"></path><g class="match" transform="matrix(1,0,0,1,0,0)"><path d="M42,44.19999980926514H92"></path><g class="match-fragment" transform="matrix(1,0,0,1,0,32)"><path d="M10,12.199999809265137q-10,0 -10,10v2.1999998092651367q0,10 10,10h32q10,0 10,-10v-2.1999998092651367q0,-10 -10,-10M52,27.199999809265137l5,-5m-5,5l-5,-5"></path><g class="escape" transform="matrix(1,0,0,1,10,0)"><g class="label"><rect width="32" height="24.399999618530273" rx="3" ry="3"></rect><text x="0" y="0" transform="matrix(1,0,0,1,5,17.2)"><tspan>digit</tspan></text></g></g></g><g class="match-fragment" transform="matrix(1,0,0,1,67,0)"><path d="M0,44.19999980926514q10,0 10,-10v-24.19999998807907q0,-10 10,-10h109.8499984741211q10,0 10,10v24.19999998807907q0,10 10,10M15,44.19999980926514q-10,0 -10,10v36.60000306367874q0,10 10,10h119.8499984741211q10,0 10,-10v-36.60000306367874q0,-10 -10,-10M144.8499984741211,59.19999980926514l5,-5m-5,5l-5,-5"></path><g class="subexp" transform="matrix(1,0,0,1,15,10)"><rect class="subexp-box" rx="3" ry="3" transform="matrix(1,0,0,1,0,12)" width="119.8499984741211" height="68.80000305175781"></rect><text x="0" y="0" class="subexp-label" transform="matrix(1,0,0,1,0,12)"><tspan>group #7</tspan></text><g class="regexp match" transform="matrix(1,0,0,1,10,22)"><path d="M22,12.199999809265137H42"></path><g class="match-fragment literal" transform="matrix(1,0,0,1,0,0)"><g class="label"><rect width="22" height="24.399999618530273" rx="3" ry="3"></rect><text x="0" y="0" transform="matrix(1,0,0,1,5,17.2)"><tspan class="quote">“</tspan><tspan>-</tspan><tspan class="quote">”</tspan></text></g></g><g class="match-fragment" transform="matrix(1,0,0,1,32,0)"><path d="M10,12.199999809265137q-10,0 -10,10v2.1999998092651367q0,10 10,10h32q10,0 10,-10v-2.1999998092651367q0,-10 -10,-10M52,27.199999809265137l5,-5m-5,5l-5,-5"></path><g class="escape" transform="matrix(1,0,0,1,10,0)"><g class="label"><rect width="32" height="24.399999618530273" rx="3" ry="3"></rect><text x="0" y="0" transform="matrix(1,0,0,1,5,17.2)"><tspan>digit</tspan></text></g></g><text x="0" y="0" class="repeat-label" transform="matrix(1,0,0,1,0,46.4)"><tspan>at most 2 times</tspan><title><text x="0" y="0">repeats at most 3 times in total</text></title></text></g></g></g><text x="0" y="0" class="repeat-label" transform="matrix(1,0,0,1,77,112.8)"><tspan>at most 2 times</tspan><title><text x="0" y="0">repeats at most 3 times in total</text></title></text></g></g><g class="match match-fragment literal" transform="matrix(1,0,0,1,92.7583,120.2)"><g class="label"><rect width="31.33333396911621" height="24.399999618530273" rx="3" ry="3"></rect><text x="0" y="0" transform="matrix(1,0,0,1,5,17.2)"><tspan class="quote">“</tspan><tspan>1u</tspan><tspan class="quote">”</tspan></text></g></g></g></g></g></g></g></g></g><g class="match-fragment" transform="matrix(1,0,0,1,818.3667,44.1)"><path d="M0,80.89999980926514q10,0 10,-10v-60.899999988079074q0,-10 10,-10h369.5167236328125q10,0 10,10v60.899999988079074q0,10 10,10"></path><g class="subexp" transform="matrix(1,0,0,1,15,10)"><rect class="subexp-box" rx="3" ry="3" transform="matrix(1,0,0,1,0,12)" width="379.5167236328125" height="139.9000015258789"></rect><text x="0" y="0" class="subexp-label" transform="matrix(1,0,0,1,0,12)"><tspan>group #8</tspan></text><g class="regexp match" transform="matrix(1,0,0,1,10,22)"><path d="M24.66666603088379,48.89999980926514H44.6667M122.66669999999999,48.89999961853027H152.6667M184.6667,48.89999980926514H234.6667"></path><g class="match-fragment literal" transform="matrix(1,0,0,1,0,36.7)"><g class="label"><rect width="24.666666984558105" height="24.399999618530273" rx="3" ry="3"></rect><text x="0" y="0" transform="matrix(1,0,0,1,5,17.2)"><tspan class="quote">“</tspan><tspan>_</tspan><tspan class="quote">”</tspan></text></g></g><g class="match-fragment subexp" transform="matrix(1,0,0,1,34.6667,0)"><rect class="subexp-box" rx="3" ry="3" transform="matrix(1,0,0,1,0,12)" width="98" height="73.79999923706055"></rect><text x="0" y="0" class="subexp-label" transform="matrix(1,0,0,1,0,12)"><tspan>group #9</tspan></text><g class="regexp" transform="matrix(1,0,0,1,10,22)"><path d="M0,26.899999618530273c10,0 10,-14.699999809265137 20,-14.699999809265137M78,26.899999618530273c-10,0 -10,-14.699999809265137 -20,-14.699999809265137M0,26.899999618530273c10,0 10,14.700000190734862 20,14.700000190734862M78,26.899999618530273c-10,0 -10,14.700000190734862 -20,14.700000190734862"></path><g class="regexp-matches" transform="matrix(1,0,0,1,20,0)"><path d="M0,12.199999809265137h2.3333M35.66663206176758,12.199999809265137H38M0,41.599999809265135h0M38,41.599999809265135H38"></path><g class="match match-fragment literal" transform="matrix(1,0,0,1,2.3333,0)"><g class="label"><rect width="33.33333396911621" height="24.399999618530273" rx="3" ry="3"></rect><text x="0" y="0" transform="matrix(1,0,0,1,5,17.2)"><tspan class="quote">“</tspan><tspan>inc</tspan><tspan class="quote">”</tspan></text></g></g><g class="match match-fragment literal" transform="matrix(1,0,0,1,0,29.4)"><g class="label"><rect width="38" height="24.399999618530273" rx="3" ry="3"></rect><text x="0" y="0" transform="matrix(1,0,0,1,5,17.2)"><tspan class="quote">“</tspan><tspan>dpg</tspan><tspan class="quote">”</tspan></text></g></g></g></g></g><g class="match-fragment" transform="matrix(1,0,0,1,142.6667,36.7)"><path d="M10,12.199999809265137q-10,0 -10,10v2.1999998092651367q0,10 10,10h32q10,0 10,-10v-2.1999998092651367q0,-10 -10,-10M52,27.199999809265137l5,-5m-5,5l-5,-5"></path><g class="escape" transform="matrix(1,0,0,1,10,0)"><g class="label"><rect width="32" height="24.399999618530273" rx="3" ry="3"></rect><text x="0" y="0" transform="matrix(1,0,0,1,5,17.2)"><tspan>digit</tspan></text></g></g></g><g class="match-fragment" transform="matrix(1,0,0,1,209.6667,4.7)"><path d="M0,44.19999980926514q10,0 10,-10v-24.19999998807907q0,-10 10,-10h109.8499984741211q10,0 10,10v24.19999998807907q0,10 10,10M15,44.19999980926514q-10,0 -10,10v36.60000306367874q0,10 10,10h119.8499984741211q10,0 10,-10v-36.60000306367874q0,-10 -10,-10M144.8499984741211,59.19999980926514l5,-5m-5,5l-5,-5"></path><g class="subexp" transform="matrix(1,0,0,1,15,10)"><rect class="subexp-box" rx="3" ry="3" transform="matrix(1,0,0,1,0,12)" width="119.8499984741211" height="68.80000305175781"></rect><text x="0" y="0" class="subexp-label" transform="matrix(1,0,0,1,0,12)"><tspan>group #10</tspan></text><g class="regexp match" transform="matrix(1,0,0,1,10,22)"><path d="M22,12.199999809265137H42"></path><g class="match-fragment literal" transform="matrix(1,0,0,1,0,0)"><g class="label"><rect width="22" height="24.399999618530273" rx="3" ry="3"></rect><text x="0" y="0" transform="matrix(1,0,0,1,5,17.2)"><tspan class="quote">“</tspan><tspan>-</tspan><tspan class="quote">”</tspan></text></g></g><g class="match-fragment" transform="matrix(1,0,0,1,32,0)"><path d="M10,12.199999809265137q-10,0 -10,10v2.1999998092651367q0,10 10,10h32q10,0 10,-10v-2.1999998092651367q0,-10 -10,-10M52,27.199999809265137l5,-5m-5,5l-5,-5"></path><g class="escape" transform="matrix(1,0,0,1,10,0)"><g class="label"><rect width="32" height="24.399999618530273" rx="3" ry="3"></rect><text x="0" y="0" transform="matrix(1,0,0,1,5,17.2)"><tspan>digit</tspan></text></g></g><text x="0" y="0" class="repeat-label" transform="matrix(1,0,0,1,0,46.4)"><tspan>at most 2 times</tspan><title><text x="0" y="0">repeats at most 3 times in total</text></title></text></g></g></g><text x="0" y="0" class="repeat-label" transform="matrix(1,0,0,1,77,112.8)"><tspan>at most 2 times</tspan><title><text x="0" y="0">repeats at most 3 times in total</text></title></text></g></g></g></g><g class="match-fragment literal" transform="matrix(1,0,0,1,1237.8835,112.8)"><g class="label"><rect width="37.33333396911621" height="24.399999618530273" rx="3" ry="3"></rect><text x="0" y="0" transform="matrix(1,0,0,1,5,17.2)"><tspan class="quote">“</tspan><tspan>_alt</tspan><tspan class="quote">”</tspan></text></g></g><g class="match-fragment" transform="matrix(1,0,0,1,1285.2168,112.8)"><path d="M10,12.199999809265137q-10,0 -10,10v2.1999998092651367q0,10 10,10h32q10,0 10,-10v-2.1999998092651367q0,-10 -10,-10M52,27.199999809265137l5,-5m-5,5l-5,-5"></path><g class="escape" transform="matrix(1,0,0,1,10,0)"><g class="label"><rect width="32" height="24.399999618530273" rx="3" ry="3"></rect><text x="0" y="0" transform="matrix(1,0,0,1,5,17.2)"><tspan>digit</tspan></text></g></g></g></g></g><g class="match-fragment" transform="matrix(1,0,0,1,1372.2168,0)"><path d="M0,308.4500120282173q10,0 10,-10v-288.45001220703125q0,-10 10,-10h2996.616943359375q10,0 10,10v288.45001220703125q0,10 10,10"></path><g class="subexp" transform="matrix(1,0,0,1,15,10)"><rect class="subexp-box" rx="3" ry="3" transform="matrix(1,0,0,1,0,12)" width="3006.616943359375" height="572.9000244140625"></rect><text x="0" y="0" class="subexp-label" transform="matrix(1,0,0,1,0,12)"><tspan>group #11</tspan></text><g class="regexp" transform="matrix(1,0,0,1,10,22)"><path d="M10,188.99999980926515q0,-10 10,-10M2976.616943359375,188.99999980926515q0,-10 -10,-10M10,441.8999998092651q0,10 10,10M2976.616943359375,441.8999998092651q0,10 -10,10M0,276.4500120282173q10,0 10,-10V188.99999980926515M2986.616943359375,276.4500120282173q-10,0 -10,-10V188.99999980926515M0,276.4500120282173q10,0 10,10V441.8999998092651M2986.616943359375,276.4500120282173q-10,0 -10,10V441.8999998092651"></path><g class="regexp-matches" transform="matrix(1,0,0,1,20,0)"><path d="M0,178.99999980926515h421.5167M2409.2502,178.99999980926515H2946.616943359375M0,451.8999998092651h35M2835.767,451.8999998092651H2946.616943359375"></path><g class="match match-fragment subexp" transform="matrix(1,0,0,1,401.5167,0)"><rect class="subexp-box" rx="3" ry="3" transform="matrix(1,0,0,1,0,12)" width="2143.58349609375" height="300"></rect><text x="0" y="0" class="subexp-label" transform="matrix(1,0,0,1,0,12)"><tspan>group #12</tspan></text><g class="regexp match" transform="matrix(1,0,0,1,10,22)"><path d="M830.0334236328125,156.99999980926515H900.0334"></path><g class="match-fragment subexp" transform="matrix(1,0,0,1,0,0)"><rect class="subexp-box" rx="3" ry="3" transform="matrix(1,0,0,1,0,12)" width="865.033447265625" height="268"></rect><text x="0" y="0" class="subexp-label" transform="matrix(1,0,0,1,0,12)"><tspan>group #13</tspan></text><g class="regexp match" transform="matrix(1,0,0,1,10,22)"><path d="M38.66666793823242,134.99999980926515H58.6667M315.5167061035156,134.99999542236327H360.5167"></path><g class="match-fragment literal" transform="matrix(1,0,0,1,0,122.8)"><g class="label"><rect width="38.66666793823242" height="24.399999618530273" rx="3" ry="3"></rect><text x="0" y="0" transform="matrix(1,0,0,1,5,17.2)"><tspan class="quote">“</tspan><tspan>_art</tspan><tspan class="quote">”</tspan></text></g></g><g class="match-fragment subexp" transform="matrix(1,0,0,1,48.6667,40.7)"><rect class="subexp-box" rx="3" ry="3" transform="matrix(1,0,0,1,0,12)" width="276.8500061035156" height="164.59999084472656"></rect><text x="0" y="0" class="subexp-label" transform="matrix(1,0,0,1,0,12)"><tspan>group #14</tspan></text><g class="regexp" transform="matrix(1,0,0,1,10,22)"><path d="M10,54.19999980926514q0,-10 10,-10M246.85000610351562,54.19999980926514q0,-10 -10,-10M10,122.39999980926513q0,10 10,10M246.85000610351562,122.39999980926513q0,10 -10,10M0,72.29999542236328q10,0 10,-10V54.19999980926514M256.8500061035156,72.29999542236328q-10,0 -10,-10V54.19999980926514M0,72.29999542236328q10,0 10,10V122.39999980926513M256.8500061035156,72.29999542236328q-10,0 -10,10V122.39999980926513"></path><g class="regexp-matches" transform="matrix(1,0,0,1,20,0)"><path d="M0,44.19999980926514h10M166,44.19999980926514H216.85000610351562M0,132.39999980926513h92.7583M124.09163396911622,132.39999980926513H216.85000610351562"></path><g class="match" transform="matrix(1,0,0,1,0,0)"><path d="M42,44.19999980926514H92"></path><g class="match-fragment" transform="matrix(1,0,0,1,0,32)"><path d="M10,12.199999809265137q-10,0 -10,10v2.1999998092651367q0,10 10,10h32q10,0 10,-10v-2.1999998092651367q0,-10 -10,-10M52,27.199999809265137l5,-5m-5,5l-5,-5"></path><g class="escape" transform="matrix(1,0,0,1,10,0)"><g class="label"><rect width="32" height="24.399999618530273" rx="3" ry="3"></rect><text x="0" y="0" transform="matrix(1,0,0,1,5,17.2)"><tspan>digit</tspan></text></g></g></g><g class="match-fragment" transform="matrix(1,0,0,1,67,0)"><path d="M0,44.19999980926514q10,0 10,-10v-24.19999998807907q0,-10 10,-10h109.8499984741211q10,0 10,10v24.19999998807907q0,10 10,10M15,44.19999980926514q-10,0 -10,10v36.60000306367874q0,10 10,10h119.8499984741211q10,0 10,-10v-36.60000306367874q0,-10 -10,-10M144.8499984741211,59.19999980926514l5,-5m-5,5l-5,-5"></path><g class="subexp" transform="matrix(1,0,0,1,15,10)"><rect class="subexp-box" rx="3" ry="3" transform="matrix(1,0,0,1,0,12)" width="119.8499984741211" height="68.80000305175781"></rect><text x="0" y="0" class="subexp-label" transform="matrix(1,0,0,1,0,12)"><tspan>group #15</tspan></text><g class="regexp match" transform="matrix(1,0,0,1,10,22)"><path d="M22,12.199999809265137H42"></path><g class="match-fragment literal" transform="matrix(1,0,0,1,0,0)"><g class="label"><rect width="22" height="24.399999618530273" rx="3" ry="3"></rect><text x="0" y="0" transform="matrix(1,0,0,1,5,17.2)"><tspan class="quote">“</tspan><tspan>-</tspan><tspan class="quote">”</tspan></text></g></g><g class="match-fragment" transform="matrix(1,0,0,1,32,0)"><path d="M10,12.199999809265137q-10,0 -10,10v2.1999998092651367q0,10 10,10h32q10,0 10,-10v-2.1999998092651367q0,-10 -10,-10M52,27.199999809265137l5,-5m-5,5l-5,-5"></path><g class="escape" transform="matrix(1,0,0,1,10,0)"><g class="label"><rect width="32" height="24.399999618530273" rx="3" ry="3"></rect><text x="0" y="0" transform="matrix(1,0,0,1,5,17.2)"><tspan>digit</tspan></text></g></g><text x="0" y="0" class="repeat-label" transform="matrix(1,0,0,1,0,46.4)"><tspan>at most 2 times</tspan><title><text x="0" y="0">repeats at most 3 times in total</text></title></text></g></g></g><text x="0" y="0" class="repeat-label" transform="matrix(1,0,0,1,77,112.8)"><tspan>at most 2 times</tspan><title><text x="0" y="0">repeats at most 3 times in total</text></title></text></g></g><g class="match match-fragment literal" transform="matrix(1,0,0,1,92.7583,120.2)"><g class="label"><rect width="31.33333396911621" height="24.399999618530273" rx="3" ry="3"></rect><text x="0" y="0" transform="matrix(1,0,0,1,5,17.2)"><tspan class="quote">“</tspan><tspan>1u</tspan><tspan class="quote">”</tspan></text></g></g></g></g></g><g class="match-fragment" transform="matrix(1,0,0,1,335.5167,0)"><path d="M0,135q10,0 10,-10v-115.00000017881393q0,-10 10,-10h469.5167236328125q10,0 10,10v115.00000017881393q0,10 10,10"></path><g class="subexp" transform="matrix(1,0,0,1,15,10)"><rect class="subexp-box" rx="3" ry="3" transform="matrix(1,0,0,1,0,12)" width="479.5167236328125" height="226"></rect><text x="0" y="0" class="subexp-label" transform="matrix(1,0,0,1,0,12)"><tspan>group #16</tspan></text><g class="regexp" transform="matrix(1,0,0,1,10,22)"><path d="M10,22.199999809265137q0,-10 10,-10M449.5167236328125,22.199999809265137q0,-10 -10,-10M10,113.69999980926514q0,10 10,10M449.5167236328125,113.69999980926514q0,10 -10,10M0,103q10,0 10,-10V22.199999809265137M459.5167236328125,103q-10,0 -10,-10V22.199999809265137M0,103q10,0 10,10V113.69999980926514M459.5167236328125,103q-10,0 -10,10V113.69999980926514"></path><g class="regexp-matches" transform="matrix(1,0,0,1,20,0)"><path d="M0,12.199999809265137h189.425M230.09166793823243,12.199999809265137H419.5167236328125M0,123.69999980926514h0M409.5167061035156,123.69999980926514H419.5167236328125"></path><g class="match match-fragment literal" transform="matrix(1,0,0,1,189.425,0)"><g class="label"><rect width="40.66666793823242" height="24.399999618530273" rx="3" ry="3"></rect><text x="0" y="0" transform="matrix(1,0,0,1,5,17.2)"><tspan class="quote">“</tspan><tspan>_cpt</tspan><tspan class="quote">”</tspan></text></g></g><g class="match" transform="matrix(1,0,0,1,0,29.4)"><path d="M24.66666603088379,94.29999980926513H44.6667M122.66669999999999,94.29999961853028H152.6667"></path><g class="match-fragment literal" transform="matrix(1,0,0,1,0,82.1)"><g class="label"><rect width="24.666666984558105" height="24.399999618530273" rx="3" ry="3"></rect><text x="0" y="0" transform="matrix(1,0,0,1,5,17.2)"><tspan class="quote">“</tspan><tspan>_</tspan><tspan class="quote">”</tspan></text></g></g><g class="match-fragment subexp" transform="matrix(1,0,0,1,34.6667,45.4)"><rect class="subexp-box" rx="3" ry="3" transform="matrix(1,0,0,1,0,12)" width="98" height="73.79999923706055"></rect><text x="0" y="0" class="subexp-label" transform="matrix(1,0,0,1,0,12)"><tspan>group #17</tspan></text><g class="regexp" transform="matrix(1,0,0,1,10,22)"><path d="M0,26.899999618530273c10,0 10,-14.699999809265137 20,-14.699999809265137M78,26.899999618530273c-10,0 -10,-14.699999809265137 -20,-14.699999809265137M0,26.899999618530273c10,0 10,14.700000190734862 20,14.700000190734862M78,26.899999618530273c-10,0 -10,14.700000190734862 -20,14.700000190734862"></path><g class="regexp-matches" transform="matrix(1,0,0,1,20,0)"><path d="M0,12.199999809265137h1.3333M36.66663206176758,12.199999809265137H38M0,41.599999809265135h0M38,41.599999809265135H38"></path><g class="match match-fragment literal" transform="matrix(1,0,0,1,1.3333,0)"><g class="label"><rect width="35.33333396911621" height="24.399999618530273" rx="3" ry="3"></rect><text x="0" y="0" transform="matrix(1,0,0,1,5,17.2)"><tspan class="quote">“</tspan><tspan>par</tspan><tspan class="quote">”</tspan></text></g></g><g class="match match-fragment literal" transform="matrix(1,0,0,1,0,29.4)"><g class="label"><rect width="38" height="24.399999618530273" rx="3" ry="3"></rect><text x="0" y="0" transform="matrix(1,0,0,1,5,17.2)"><tspan class="quote">“</tspan><tspan>dpg</tspan><tspan class="quote">”</tspan></text></g></g></g></g></g><g class="match-fragment subexp" transform="matrix(1,0,0,1,142.6667,0)"><rect class="subexp-box" rx="3" ry="3" transform="matrix(1,0,0,1,0,12)" width="276.8500061035156" height="164.59999084472656"></rect><text x="0" y="0" class="subexp-label" transform="matrix(1,0,0,1,0,12)"><tspan>group #18</tspan></text><g class="regexp" transform="matrix(1,0,0,1,10,22)"><path d="M10,54.19999980926514q0,-10 10,-10M246.85000610351562,54.19999980926514q0,-10 -10,-10M10,122.39999980926513q0,10 10,10M246.85000610351562,122.39999980926513q0,10 -10,10M0,72.29999542236328q10,0 10,-10V54.19999980926514M256.8500061035156,72.29999542236328q-10,0 -10,-10V54.19999980926514M0,72.29999542236328q10,0 10,10V122.39999980926513M256.8500061035156,72.29999542236328q-10,0 -10,10V122.39999980926513"></path><g class="regexp-matches" transform="matrix(1,0,0,1,20,0)"><path d="M0,44.19999980926514h10M166,44.19999980926514H216.85000610351562M0,132.39999980926513h92.7583M124.09163396911622,132.39999980926513H216.85000610351562"></path><g class="match" transform="matrix(1,0,0,1,0,0)"><path d="M42,44.19999980926514H92"></path><g class="match-fragment" transform="matrix(1,0,0,1,0,32)"><path d="M10,12.199999809265137q-10,0 -10,10v2.1999998092651367q0,10 10,10h32q10,0 10,-10v-2.1999998092651367q0,-10 -10,-10M52,27.199999809265137l5,-5m-5,5l-5,-5"></path><g class="escape" transform="matrix(1,0,0,1,10,0)"><g class="label"><rect width="32" height="24.399999618530273" rx="3" ry="3"></rect><text x="0" y="0" transform="matrix(1,0,0,1,5,17.2)"><tspan>digit</tspan></text></g></g></g><g class="match-fragment" transform="matrix(1,0,0,1,67,0)"><path d="M0,44.19999980926514q10,0 10,-10v-24.19999998807907q0,-10 10,-10h109.8499984741211q10,0 10,10v24.19999998807907q0,10 10,10M15,44.19999980926514q-10,0 -10,10v36.60000306367874q0,10 10,10h119.8499984741211q10,0 10,-10v-36.60000306367874q0,-10 -10,-10M144.8499984741211,59.19999980926514l5,-5m-5,5l-5,-5"></path><g class="subexp" transform="matrix(1,0,0,1,15,10)"><rect class="subexp-box" rx="3" ry="3" transform="matrix(1,0,0,1,0,12)" width="119.8499984741211" height="68.80000305175781"></rect><text x="0" y="0" class="subexp-label" transform="matrix(1,0,0,1,0,12)"><tspan>group #19</tspan></text><g class="regexp match" transform="matrix(1,0,0,1,10,22)"><path d="M22,12.199999809265137H42"></path><g class="match-fragment literal" transform="matrix(1,0,0,1,0,0)"><g class="label"><rect width="22" height="24.399999618530273" rx="3" ry="3"></rect><text x="0" y="0" transform="matrix(1,0,0,1,5,17.2)"><tspan class="quote">“</tspan><tspan>-</tspan><tspan class="quote">”</tspan></text></g></g><g class="match-fragment" transform="matrix(1,0,0,1,32,0)"><path d="M10,12.199999809265137q-10,0 -10,10v2.1999998092651367q0,10 10,10h32q10,0 10,-10v-2.1999998092651367q0,-10 -10,-10M52,27.199999809265137l5,-5m-5,5l-5,-5"></path><g class="escape" transform="matrix(1,0,0,1,10,0)"><g class="label"><rect width="32" height="24.399999618530273" rx="3" ry="3"></rect><text x="0" y="0" transform="matrix(1,0,0,1,5,17.2)"><tspan>digit</tspan></text></g></g><text x="0" y="0" class="repeat-label" transform="matrix(1,0,0,1,0,46.4)"><tspan>at most 2 times</tspan><title><text x="0" y="0">repeats at most 3 times in total</text></title></text></g></g></g><text x="0" y="0" class="repeat-label" transform="matrix(1,0,0,1,77,112.8)"><tspan>at most 2 times</tspan><title><text x="0" y="0">repeats at most 3 times in total</text></title></text></g></g><g class="match match-fragment literal" transform="matrix(1,0,0,1,92.7583,120.2)"><g class="label"><rect width="31.33333396911621" height="24.399999618530273" rx="3" ry="3"></rect><text x="0" y="0" transform="matrix(1,0,0,1,5,17.2)"><tspan class="quote">“</tspan><tspan>1u</tspan><tspan class="quote">”</tspan></text></g></g></g></g></g></g></g></g></g></g></g></g><g class="match-fragment" transform="matrix(1,0,0,1,875.0334,12.1)"><path d="M0,144.89999980926513q10,0 10,-10v-124.89999998807906q0,-10 10,-10h1208.5501708984375q10,0 10,10v124.89999998807906q0,10 10,10"></path><g class="subexp" transform="matrix(1,0,0,1,15,10)"><rect class="subexp-box" rx="3" ry="3" transform="matrix(1,0,0,1,0,12)" width="1218.5501708984375" height="223.89999389648438"></rect><text x="0" y="0" class="subexp-label" transform="matrix(1,0,0,1,0,12)"><tspan>group #20</tspan></text><g class="regexp match" transform="matrix(1,0,0,1,10,22)"><path d="M24.66666603088379,112.89999980926514H44.6667M122.66669999999999,112.89999961853027H152.6667M184.6667,112.89999980926514H234.6667M308.6667,112.89999980926514H394.5167"></path><g class="match-fragment literal" transform="matrix(1,0,0,1,0,100.7)"><g class="label"><rect width="24.666666984558105" height="24.399999618530273" rx="3" ry="3"></rect><text x="0" y="0" transform="matrix(1,0,0,1,5,17.2)"><tspan class="quote">“</tspan><tspan>_</tspan><tspan class="quote">”</tspan></text></g></g><g class="match-fragment subexp" transform="matrix(1,0,0,1,34.6667,64)"><rect class="subexp-box" rx="3" ry="3" transform="matrix(1,0,0,1,0,12)" width="98" height="73.79999923706055"></rect><text x="0" y="0" class="subexp-label" transform="matrix(1,0,0,1,0,12)"><tspan>group #21</tspan></text><g class="regexp" transform="matrix(1,0,0,1,10,22)"><path d="M0,26.899999618530273c10,0 10,-14.699999809265137 20,-14.699999809265137M78,26.899999618530273c-10,0 -10,-14.699999809265137 -20,-14.699999809265137M0,26.899999618530273c10,0 10,14.700000190734862 20,14.700000190734862M78,26.899999618530273c-10,0 -10,14.700000190734862 -20,14.700000190734862"></path><g class="regexp-matches" transform="matrix(1,0,0,1,20,0)"><path d="M0,12.199999809265137h2.3333M35.66663206176758,12.199999809265137H38M0,41.599999809265135h0M38,41.599999809265135H38"></path><g class="match match-fragment literal" transform="matrix(1,0,0,1,2.3333,0)"><g class="label"><rect width="33.33333396911621" height="24.399999618530273" rx="3" ry="3"></rect><text x="0" y="0" transform="matrix(1,0,0,1,5,17.2)"><tspan class="quote">“</tspan><tspan>inc</tspan><tspan class="quote">”</tspan></text></g></g><g class="match match-fragment literal" transform="matrix(1,0,0,1,0,29.4)"><g class="label"><rect width="38" height="24.399999618530273" rx="3" ry="3"></rect><text x="0" y="0" transform="matrix(1,0,0,1,5,17.2)"><tspan class="quote">“</tspan><tspan>dpg</tspan><tspan class="quote">”</tspan></text></g></g></g></g></g><g class="match-fragment" transform="matrix(1,0,0,1,142.6667,100.7)"><path d="M10,12.199999809265137q-10,0 -10,10v2.1999998092651367q0,10 10,10h32q10,0 10,-10v-2.1999998092651367q0,-10 -10,-10M52,27.199999809265137l5,-5m-5,5l-5,-5"></path><g class="escape" transform="matrix(1,0,0,1,10,0)"><g class="label"><rect width="32" height="24.399999618530273" rx="3" ry="3"></rect><text x="0" y="0" transform="matrix(1,0,0,1,5,17.2)"><tspan>digit</tspan></text></g></g></g><g class="match-fragment" transform="matrix(1,0,0,1,209.6667,68.7)"><path d="M0,44.19999980926514q10,0 10,-10v-24.19999998807907q0,-10 10,-10h109.8499984741211q10,0 10,10v24.19999998807907q0,10 10,10M15,44.19999980926514q-10,0 -10,10v36.60000306367874q0,10 10,10h119.8499984741211q10,0 10,-10v-36.60000306367874q0,-10 -10,-10M144.8499984741211,59.19999980926514l5,-5m-5,5l-5,-5"></path><g class="subexp" transform="matrix(1,0,0,1,15,10)"><rect class="subexp-box" rx="3" ry="3" transform="matrix(1,0,0,1,0,12)" width="119.8499984741211" height="68.80000305175781"></rect><text x="0" y="0" class="subexp-label" transform="matrix(1,0,0,1,0,12)"><tspan>group #22</tspan></text><g class="regexp match" transform="matrix(1,0,0,1,10,22)"><path d="M22,12.199999809265137H42"></path><g class="match-fragment literal" transform="matrix(1,0,0,1,0,0)"><g class="label"><rect width="22" height="24.399999618530273" rx="3" ry="3"></rect><text x="0" y="0" transform="matrix(1,0,0,1,5,17.2)"><tspan class="quote">“</tspan><tspan>-</tspan><tspan class="quote">”</tspan></text></g></g><g class="match-fragment" transform="matrix(1,0,0,1,32,0)"><path d="M10,12.199999809265137q-10,0 -10,10v2.1999998092651367q0,10 10,10h32q10,0 10,-10v-2.1999998092651367q0,-10 -10,-10M52,27.199999809265137l5,-5m-5,5l-5,-5"></path><g class="escape" transform="matrix(1,0,0,1,10,0)"><g class="label"><rect width="32" height="24.399999618530273" rx="3" ry="3"></rect><text x="0" y="0" transform="matrix(1,0,0,1,5,17.2)"><tspan>digit</tspan></text></g></g><text x="0" y="0" class="repeat-label" transform="matrix(1,0,0,1,0,46.4)"><tspan>at most 2 times</tspan><title><text x="0" y="0">repeats at most 3 times in total</text></title></text></g></g></g><text x="0" y="0" class="repeat-label" transform="matrix(1,0,0,1,77,112.8)"><tspan>at most 2 times</tspan><title><text x="0" y="0">repeats at most 3 times in total</text></title></text></g><g class="match-fragment" transform="matrix(1,0,0,1,369.5167,0)"><path d="M0,112.89999980926514q10,0 10,-10v-92.89999998807907q0,-10 10,-10h789.033447265625q10,0 10,10v92.89999998807907q0,10 10,10"></path><g class="subexp" transform="matrix(1,0,0,1,15,10)"><rect class="subexp-box" rx="3" ry="3" transform="matrix(1,0,0,1,0,12)" width="799.033447265625" height="181.89999389648438"></rect><text x="0" y="0" class="subexp-label" transform="matrix(1,0,0,1,0,12)"><tspan>group #23</tspan></text><g class="regexp match" transform="matrix(1,0,0,1,10,22)"><path d="M24.66666603088379,80.89999980926514H44.6667M122.66669999999999,80.89999961853027H152.6667M184.6667,80.89999980926514H234.6667M308.6667,80.89999980926514H394.5167"></path><g class="match-fragment literal" transform="matrix(1,0,0,1,0,68.7)"><g class="label"><rect width="24.666666984558105" height="24.399999618530273" rx="3" ry="3"></rect><text x="0" y="0" transform="matrix(1,0,0,1,5,17.2)"><tspan class="quote">“</tspan><tspan>_</tspan><tspan class="quote">”</tspan></text></g></g><g class="match-fragment subexp" transform="matrix(1,0,0,1,34.6667,32)"><rect class="subexp-box" rx="3" ry="3" transform="matrix(1,0,0,1,0,12)" width="98" height="73.79999923706055"></rect><text x="0" y="0" class="subexp-label" transform="matrix(1,0,0,1,0,12)"><tspan>group #24</tspan></text><g class="regexp" transform="matrix(1,0,0,1,10,22)"><path d="M0,26.899999618530273c10,0 10,-14.699999809265137 20,-14.699999809265137M78,26.899999618530273c-10,0 -10,-14.699999809265137 -20,-14.699999809265137M0,26.899999618530273c10,0 10,14.700000190734862 20,14.700000190734862M78,26.899999618530273c-10,0 -10,14.700000190734862 -20,14.700000190734862"></path><g class="regexp-matches" transform="matrix(1,0,0,1,20,0)"><path d="M0,12.199999809265137h4M34,12.199999809265137H38M0,41.599999809265135h0M38,41.599999809265135H38"></path><g class="match match-fragment literal" transform="matrix(1,0,0,1,4,0)"><g class="label"><rect width="30" height="24.399999618530273" rx="3" ry="3"></rect><text x="0" y="0" transform="matrix(1,0,0,1,5,17.2)"><tspan class="quote">“</tspan><tspan>ali</tspan><tspan class="quote">”</tspan></text></g></g><g class="match match-fragment literal" transform="matrix(1,0,0,1,0,29.4)"><g class="label"><rect width="38" height="24.399999618530273" rx="3" ry="3"></rect><text x="0" y="0" transform="matrix(1,0,0,1,5,17.2)"><tspan class="quote">“</tspan><tspan>dpg</tspan><tspan class="quote">”</tspan></text></g></g></g></g></g><g class="match-fragment" transform="matrix(1,0,0,1,142.6667,68.7)"><path d="M10,12.199999809265137q-10,0 -10,10v2.1999998092651367q0,10 10,10h32q10,0 10,-10v-2.1999998092651367q0,-10 -10,-10M52,27.199999809265137l5,-5m-5,5l-5,-5"></path><g class="escape" transform="matrix(1,0,0,1,10,0)"><g class="label"><rect width="32" height="24.399999618530273" rx="3" ry="3"></rect><text x="0" y="0" transform="matrix(1,0,0,1,5,17.2)"><tspan>digit</tspan></text></g></g></g><g class="match-fragment" transform="matrix(1,0,0,1,209.6667,36.7)"><path d="M0,44.19999980926514q10,0 10,-10v-24.19999998807907q0,-10 10,-10h109.8499984741211q10,0 10,10v24.19999998807907q0,10 10,10M15,44.19999980926514q-10,0 -10,10v36.60000306367874q0,10 10,10h119.8499984741211q10,0 10,-10v-36.60000306367874q0,-10 -10,-10M144.8499984741211,59.19999980926514l5,-5m-5,5l-5,-5"></path><g class="subexp" transform="matrix(1,0,0,1,15,10)"><rect class="subexp-box" rx="3" ry="3" transform="matrix(1,0,0,1,0,12)" width="119.8499984741211" height="68.80000305175781"></rect><text x="0" y="0" class="subexp-label" transform="matrix(1,0,0,1,0,12)"><tspan>group #25</tspan></text><g class="regexp match" transform="matrix(1,0,0,1,10,22)"><path d="M22,12.199999809265137H42"></path><g class="match-fragment literal" transform="matrix(1,0,0,1,0,0)"><g class="label"><rect width="22" height="24.399999618530273" rx="3" ry="3"></rect><text x="0" y="0" transform="matrix(1,0,0,1,5,17.2)"><tspan class="quote">“</tspan><tspan>-</tspan><tspan class="quote">”</tspan></text></g></g><g class="match-fragment" transform="matrix(1,0,0,1,32,0)"><path d="M10,12.199999809265137q-10,0 -10,10v2.1999998092651367q0,10 10,10h32q10,0 10,-10v-2.1999998092651367q0,-10 -10,-10M52,27.199999809265137l5,-5m-5,5l-5,-5"></path><g class="escape" transform="matrix(1,0,0,1,10,0)"><g class="label"><rect width="32" height="24.399999618530273" rx="3" ry="3"></rect><text x="0" y="0" transform="matrix(1,0,0,1,5,17.2)"><tspan>digit</tspan></text></g></g><text x="0" y="0" class="repeat-label" transform="matrix(1,0,0,1,0,46.4)"><tspan>at most 2 times</tspan><title><text x="0" y="0">repeats at most 3 times in total</text></title></text></g></g></g><text x="0" y="0" class="repeat-label" transform="matrix(1,0,0,1,77,112.8)"><tspan>at most 2 times</tspan><title><text x="0" y="0">repeats at most 3 times in total</text></title></text></g><g class="match-fragment" transform="matrix(1,0,0,1,369.5167,0)"><path d="M0,80.89999980926514q10,0 10,-10v-60.899999988079074q0,-10 10,-10h369.5167236328125q10,0 10,10v60.899999988079074q0,10 10,10"></path><g class="subexp" transform="matrix(1,0,0,1,15,10)"><rect class="subexp-box" rx="3" ry="3" transform="matrix(1,0,0,1,0,12)" width="379.5167236328125" height="139.9000015258789"></rect><text x="0" y="0" class="subexp-label" transform="matrix(1,0,0,1,0,12)"><tspan>group #26</tspan></text><g class="regexp match" transform="matrix(1,0,0,1,10,22)"><path d="M24.66666603088379,48.89999980926514H44.6667M122.66669999999999,48.89999961853027H152.6667M184.6667,48.89999980926514H234.6667"></path><g class="match-fragment literal" transform="matrix(1,0,0,1,0,36.7)"><g class="label"><rect width="24.666666984558105" height="24.399999618530273" rx="3" ry="3"></rect><text x="0" y="0" transform="matrix(1,0,0,1,5,17.2)"><tspan class="quote">“</tspan><tspan>_</tspan><tspan class="quote">”</tspan></text></g></g><g class="match-fragment subexp" transform="matrix(1,0,0,1,34.6667,0)"><rect class="subexp-box" rx="3" ry="3" transform="matrix(1,0,0,1,0,12)" width="98" height="73.79999923706055"></rect><text x="0" y="0" class="subexp-label" transform="matrix(1,0,0,1,0,12)"><tspan>group #27</tspan></text><g class="regexp" transform="matrix(1,0,0,1,10,22)"><path d="M0,26.899999618530273c10,0 10,-14.699999809265137 20,-14.699999809265137M78,26.899999618530273c-10,0 -10,-14.699999809265137 -20,-14.699999809265137M0,26.899999618530273c10,0 10,14.700000190734862 20,14.700000190734862M78,26.899999618530273c-10,0 -10,14.700000190734862 -20,14.700000190734862"></path><g class="regexp-matches" transform="matrix(1,0,0,1,20,0)"><path d="M0,12.199999809265137h3.6667M34.33336603088379,12.199999809265137H38M0,41.599999809265135h0M38,41.599999809265135H38"></path><g class="match match-fragment literal" transform="matrix(1,0,0,1,3.6667,0)"><g class="label"><rect width="30.66666603088379" height="24.399999618530273" rx="3" ry="3"></rect><text x="0" y="0" transform="matrix(1,0,0,1,5,17.2)"><tspan class="quote">“</tspan><tspan>ite</tspan><tspan class="quote">”</tspan></text></g></g><g class="match match-fragment literal" transform="matrix(1,0,0,1,0,29.4)"><g class="label"><rect width="38" height="24.399999618530273" rx="3" ry="3"></rect><text x="0" y="0" transform="matrix(1,0,0,1,5,17.2)"><tspan class="quote">“</tspan><tspan>dpg</tspan><tspan class="quote">”</tspan></text></g></g></g></g></g><g class="match-fragment" transform="matrix(1,0,0,1,142.6667,36.7)"><path d="M10,12.199999809265137q-10,0 -10,10v2.1999998092651367q0,10 10,10h32q10,0 10,-10v-2.1999998092651367q0,-10 -10,-10M52,27.199999809265137l5,-5m-5,5l-5,-5"></path><g class="escape" transform="matrix(1,0,0,1,10,0)"><g class="label"><rect width="32" height="24.399999618530273" rx="3" ry="3"></rect><text x="0" y="0" transform="matrix(1,0,0,1,5,17.2)"><tspan>digit</tspan></text></g></g></g><g class="match-fragment" transform="matrix(1,0,0,1,209.6667,4.7)"><path d="M0,44.19999980926514q10,0 10,-10v-24.19999998807907q0,-10 10,-10h109.8499984741211q10,0 10,10v24.19999998807907q0,10 10,10M15,44.19999980926514q-10,0 -10,10v36.60000306367874q0,10 10,10h119.8499984741211q10,0 10,-10v-36.60000306367874q0,-10 -10,-10M144.8499984741211,59.19999980926514l5,-5m-5,5l-5,-5"></path><g class="subexp" transform="matrix(1,0,0,1,15,10)"><rect class="subexp-box" rx="3" ry="3" transform="matrix(1,0,0,1,0,12)" width="119.8499984741211" height="68.80000305175781"></rect><text x="0" y="0" class="subexp-label" transform="matrix(1,0,0,1,0,12)"><tspan>group #28</tspan></text><g class="regexp match" transform="matrix(1,0,0,1,10,22)"><path d="M22,12.199999809265137H42"></path><g class="match-fragment literal" transform="matrix(1,0,0,1,0,0)"><g class="label"><rect width="22" height="24.399999618530273" rx="3" ry="3"></rect><text x="0" y="0" transform="matrix(1,0,0,1,5,17.2)"><tspan class="quote">“</tspan><tspan>-</tspan><tspan class="quote">”</tspan></text></g></g><g class="match-fragment" transform="matrix(1,0,0,1,32,0)"><path d="M10,12.199999809265137q-10,0 -10,10v2.1999998092651367q0,10 10,10h32q10,0 10,-10v-2.1999998092651367q0,-10 -10,-10M52,27.199999809265137l5,-5m-5,5l-5,-5"></path><g class="escape" transform="matrix(1,0,0,1,10,0)"><g class="label"><rect width="32" height="24.399999618530273" rx="3" ry="3"></rect><text x="0" y="0" transform="matrix(1,0,0,1,5,17.2)"><tspan>digit</tspan></text></g></g><text x="0" y="0" class="repeat-label" transform="matrix(1,0,0,1,0,46.4)"><tspan>at most 2 times</tspan><title><text x="0" y="0">repeats at most 3 times in total</text></title></text></g></g></g><text x="0" y="0" class="repeat-label" transform="matrix(1,0,0,1,77,112.8)"><tspan>at most 2 times</tspan><title><text x="0" y="0">repeats at most 3 times in total</text></title></text></g></g></g></g></g></g></g></g></g></g></g></g><g class="match match-fragment subexp" transform="matrix(1,0,0,1,0,317)"><rect class="subexp-box" rx="3" ry="3" transform="matrix(1,0,0,1,0,12)" width="2946.616943359375" height="223.89999389648438"></rect><text x="0" y="0" class="subexp-label" transform="matrix(1,0,0,1,0,12)"><tspan>group #29</tspan></text><g class="regexp match" transform="matrix(1,0,0,1,10,22)"><path d="M333.6667,112.89999980926514H444.5167M753.1834,112.89999980926514H864.0334M1567.2168000000001,112.89999980926514H1703.0669M2011.7336,112.89999980926514H2122.5836"></path><g class="match-fragment" transform="matrix(1,0,0,1,0,32)"><path d="M0,80.89999980926514q10,0 10,-10v-60.899999988079074q0,-10 10,-10h369.5167236328125q10,0 10,10v60.899999988079074q0,10 10,10"></path><g class="subexp" transform="matrix(1,0,0,1,15,10)"><rect class="subexp-box" rx="3" ry="3" transform="matrix(1,0,0,1,0,12)" width="379.5167236328125" height="139.9000015258789"></rect><text x="0" y="0" class="subexp-label" transform="matrix(1,0,0,1,0,12)"><tspan>group #30</tspan></text><g class="regexp match" transform="matrix(1,0,0,1,10,22)"><path d="M24.66666603088379,48.89999980926514H44.6667M122.66669999999999,48.89999961853027H152.6667M184.6667,48.89999980926514H234.6667"></path><g class="match-fragment literal" transform="matrix(1,0,0,1,0,36.7)"><g class="label"><rect width="24.666666984558105" height="24.399999618530273" rx="3" ry="3"></rect><text x="0" y="0" transform="matrix(1,0,0,1,5,17.2)"><tspan class="quote">“</tspan><tspan>_</tspan><tspan class="quote">”</tspan></text></g></g><g class="match-fragment subexp" transform="matrix(1,0,0,1,34.6667,0)"><rect class="subexp-box" rx="3" ry="3" transform="matrix(1,0,0,1,0,12)" width="98" height="73.79999923706055"></rect><text x="0" y="0" class="subexp-label" transform="matrix(1,0,0,1,0,12)"><tspan>group #31</tspan></text><g class="regexp" transform="matrix(1,0,0,1,10,22)"><path d="M0,26.899999618530273c10,0 10,-14.699999809265137 20,-14.699999809265137M78,26.899999618530273c-10,0 -10,-14.699999809265137 -20,-14.699999809265137M0,26.899999618530273c10,0 10,14.700000190734862 20,14.700000190734862M78,26.899999618530273c-10,0 -10,14.700000190734862 -20,14.700000190734862"></path><g class="regexp-matches" transform="matrix(1,0,0,1,20,0)"><path d="M0,12.199999809265137h3M35,12.199999809265137H38M0,41.599999809265135h0M38,41.599999809265135H38"></path><g class="match match-fragment literal" transform="matrix(1,0,0,1,3,0)"><g class="label"><rect width="32" height="24.399999618530273" rx="3" ry="3"></rect><text x="0" y="0" transform="matrix(1,0,0,1,5,17.2)"><tspan class="quote">“</tspan><tspan>prt</tspan><tspan class="quote">”</tspan></text></g></g><g class="match match-fragment literal" transform="matrix(1,0,0,1,0,29.4)"><g class="label"><rect width="38" height="24.399999618530273" rx="3" ry="3"></rect><text x="0" y="0" transform="matrix(1,0,0,1,5,17.2)"><tspan class="quote">“</tspan><tspan>agh</tspan><tspan class="quote">”</tspan></text></g></g></g></g></g><g class="match-fragment" transform="matrix(1,0,0,1,142.6667,36.7)"><path d="M10,12.199999809265137q-10,0 -10,10v2.1999998092651367q0,10 10,10h32q10,0 10,-10v-2.1999998092651367q0,-10 -10,-10M52,27.199999809265137l5,-5m-5,5l-5,-5"></path><g class="escape" transform="matrix(1,0,0,1,10,0)"><g class="label"><rect width="32" height="24.399999618530273" rx="3" ry="3"></rect><text x="0" y="0" transform="matrix(1,0,0,1,5,17.2)"><tspan>digit</tspan></text></g></g></g><g class="match-fragment" transform="matrix(1,0,0,1,209.6667,4.7)"><path d="M0,44.19999980926514q10,0 10,-10v-24.19999998807907q0,-10 10,-10h109.8499984741211q10,0 10,10v24.19999998807907q0,10 10,10M15,44.19999980926514q-10,0 -10,10v36.60000306367874q0,10 10,10h119.8499984741211q10,0 10,-10v-36.60000306367874q0,-10 -10,-10M144.8499984741211,59.19999980926514l5,-5m-5,5l-5,-5"></path><g class="subexp" transform="matrix(1,0,0,1,15,10)"><rect class="subexp-box" rx="3" ry="3" transform="matrix(1,0,0,1,0,12)" width="119.8499984741211" height="68.80000305175781"></rect><text x="0" y="0" class="subexp-label" transform="matrix(1,0,0,1,0,12)"><tspan>group #32</tspan></text><g class="regexp match" transform="matrix(1,0,0,1,10,22)"><path d="M22,12.199999809265137H42"></path><g class="match-fragment literal" transform="matrix(1,0,0,1,0,0)"><g class="label"><rect width="22" height="24.399999618530273" rx="3" ry="3"></rect><text x="0" y="0" transform="matrix(1,0,0,1,5,17.2)"><tspan class="quote">“</tspan><tspan>-</tspan><tspan class="quote">”</tspan></text></g></g><g class="match-fragment" transform="matrix(1,0,0,1,32,0)"><path d="M10,12.199999809265137q-10,0 -10,10v2.1999998092651367q0,10 10,10h32q10,0 10,-10v-2.1999998092651367q0,-10 -10,-10M52,27.199999809265137l5,-5m-5,5l-5,-5"></path><g class="escape" transform="matrix(1,0,0,1,10,0)"><g class="label"><rect width="32" height="24.399999618530273" rx="3" ry="3"></rect><text x="0" y="0" transform="matrix(1,0,0,1,5,17.2)"><tspan>digit</tspan></text></g></g><text x="0" y="0" class="repeat-label" transform="matrix(1,0,0,1,0,46.4)"><tspan>at most 2 times</tspan><title><text x="0" y="0">repeats at most 3 times in total</text></title></text></g></g></g><text x="0" y="0" class="repeat-label" transform="matrix(1,0,0,1,77,112.8)"><tspan>at most 2 times</tspan><title><text x="0" y="0">repeats at most 3 times in total</text></title></text></g></g></g></g><g class="match-fragment" transform="matrix(1,0,0,1,419.5167,32)"><path d="M0,80.89999980926514q10,0 10,-10v-60.899999988079074q0,-10 10,-10h369.5167236328125q10,0 10,10v60.899999988079074q0,10 10,10"></path><g class="subexp" transform="matrix(1,0,0,1,15,10)"><rect class="subexp-box" rx="3" ry="3" transform="matrix(1,0,0,1,0,12)" width="379.5167236328125" height="139.9000015258789"></rect><text x="0" y="0" class="subexp-label" transform="matrix(1,0,0,1,0,12)"><tspan>group #33</tspan></text><g class="regexp match" transform="matrix(1,0,0,1,10,22)"><path d="M24.66666603088379,48.89999980926514H44.6667M122.66669999999999,48.89999961853027H152.6667M184.6667,48.89999980926514H234.6667"></path><g class="match-fragment literal" transform="matrix(1,0,0,1,0,36.7)"><g class="label"><rect width="24.666666984558105" height="24.399999618530273" rx="3" ry="3"></rect><text x="0" y="0" transform="matrix(1,0,0,1,5,17.2)"><tspan class="quote">“</tspan><tspan>_</tspan><tspan class="quote">”</tspan></text></g></g><g class="match-fragment subexp" transform="matrix(1,0,0,1,34.6667,0)"><rect class="subexp-box" rx="3" ry="3" transform="matrix(1,0,0,1,0,12)" width="98" height="73.79999923706055"></rect><text x="0" y="0" class="subexp-label" transform="matrix(1,0,0,1,0,12)"><tspan>group #34</tspan></text><g class="regexp" transform="matrix(1,0,0,1,10,22)"><path d="M0,26.899999618530273c10,0 10,-14.699999809265137 20,-14.699999809265137M78,26.899999618530273c-10,0 -10,-14.699999809265137 -20,-14.699999809265137M0,26.899999618530273c10,0 10,14.700000190734862 20,14.700000190734862M78,26.899999618530273c-10,0 -10,14.700000190734862 -20,14.700000190734862"></path><g class="regexp-matches" transform="matrix(1,0,0,1,20,0)"><path d="M0,12.199999809265137h4.3333M33.66663396911621,12.199999809265137H38M0,41.599999809265135h0M38,41.599999809265135H38"></path><g class="match match-fragment literal" transform="matrix(1,0,0,1,4.3333,0)"><g class="label"><rect width="29.33333396911621" height="24.399999618530273" rx="3" ry="3"></rect><text x="0" y="0" transform="matrix(1,0,0,1,5,17.2)"><tspan class="quote">“</tspan><tspan>liv</tspan><tspan class="quote">”</tspan></text></g></g><g class="match match-fragment literal" transform="matrix(1,0,0,1,0,29.4)"><g class="label"><rect width="38" height="24.399999618530273" rx="3" ry="3"></rect><text x="0" y="0" transform="matrix(1,0,0,1,5,17.2)"><tspan class="quote">“</tspan><tspan>agh</tspan><tspan class="quote">”</tspan></text></g></g></g></g></g><g class="match-fragment" transform="matrix(1,0,0,1,142.6667,36.7)"><path d="M10,12.199999809265137q-10,0 -10,10v2.1999998092651367q0,10 10,10h32q10,0 10,-10v-2.1999998092651367q0,-10 -10,-10M52,27.199999809265137l5,-5m-5,5l-5,-5"></path><g class="escape" transform="matrix(1,0,0,1,10,0)"><g class="label"><rect width="32" height="24.399999618530273" rx="3" ry="3"></rect><text x="0" y="0" transform="matrix(1,0,0,1,5,17.2)"><tspan>digit</tspan></text></g></g></g><g class="match-fragment" transform="matrix(1,0,0,1,209.6667,4.7)"><path d="M0,44.19999980926514q10,0 10,-10v-24.19999998807907q0,-10 10,-10h109.8499984741211q10,0 10,10v24.19999998807907q0,10 10,10M15,44.19999980926514q-10,0 -10,10v36.60000306367874q0,10 10,10h119.8499984741211q10,0 10,-10v-36.60000306367874q0,-10 -10,-10M144.8499984741211,59.19999980926514l5,-5m-5,5l-5,-5"></path><g class="subexp" transform="matrix(1,0,0,1,15,10)"><rect class="subexp-box" rx="3" ry="3" transform="matrix(1,0,0,1,0,12)" width="119.8499984741211" height="68.80000305175781"></rect><text x="0" y="0" class="subexp-label" transform="matrix(1,0,0,1,0,12)"><tspan>group #35</tspan></text><g class="regexp match" transform="matrix(1,0,0,1,10,22)"><path d="M22,12.199999809265137H42"></path><g class="match-fragment literal" transform="matrix(1,0,0,1,0,0)"><g class="label"><rect width="22" height="24.399999618530273" rx="3" ry="3"></rect><text x="0" y="0" transform="matrix(1,0,0,1,5,17.2)"><tspan class="quote">“</tspan><tspan>-</tspan><tspan class="quote">”</tspan></text></g></g><g class="match-fragment" transform="matrix(1,0,0,1,32,0)"><path d="M10,12.199999809265137q-10,0 -10,10v2.1999998092651367q0,10 10,10h32q10,0 10,-10v-2.1999998092651367q0,-10 -10,-10M52,27.199999809265137l5,-5m-5,5l-5,-5"></path><g class="escape" transform="matrix(1,0,0,1,10,0)"><g class="label"><rect width="32" height="24.399999618530273" rx="3" ry="3"></rect><text x="0" y="0" transform="matrix(1,0,0,1,5,17.2)"><tspan>digit</tspan></text></g></g><text x="0" y="0" class="repeat-label" transform="matrix(1,0,0,1,0,46.4)"><tspan>at most 2 times</tspan><title><text x="0" y="0">repeats at most 3 times in total</text></title></text></g></g></g><text x="0" y="0" class="repeat-label" transform="matrix(1,0,0,1,77,112.8)"><tspan>at most 2 times</tspan><title><text x="0" y="0">repeats at most 3 times in total</text></title></text></g></g></g></g><g class="match-fragment" transform="matrix(1,0,0,1,839.0334,0)"><path d="M0,112.89999980926514q10,0 10,-10v-92.89999998807907q0,-10 10,-10h789.033447265625q10,0 10,10v92.89999998807907q0,10 10,10"></path><g class="subexp" transform="matrix(1,0,0,1,15,10)"><rect class="subexp-box" rx="3" ry="3" transform="matrix(1,0,0,1,0,12)" width="799.033447265625" height="181.89999389648438"></rect><text x="0" y="0" class="subexp-label" transform="matrix(1,0,0,1,0,12)"><tspan>group #36</tspan></text><g class="regexp match" transform="matrix(1,0,0,1,10,22)"><path d="M24.66666603088379,80.89999980926514H44.6667M122.66669999999999,80.89999961853027H152.6667M184.6667,80.89999980926514H234.6667M308.6667,80.89999980926514H394.5167"></path><g class="match-fragment literal" transform="matrix(1,0,0,1,0,68.7)"><g class="label"><rect width="24.666666984558105" height="24.399999618530273" rx="3" ry="3"></rect><text x="0" y="0" transform="matrix(1,0,0,1,5,17.2)"><tspan class="quote">“</tspan><tspan>_</tspan><tspan class="quote">”</tspan></text></g></g><g class="match-fragment subexp" transform="matrix(1,0,0,1,34.6667,32)"><rect class="subexp-box" rx="3" ry="3" transform="matrix(1,0,0,1,0,12)" width="98" height="73.79999923706055"></rect><text x="0" y="0" class="subexp-label" transform="matrix(1,0,0,1,0,12)"><tspan>group #37</tspan></text><g class="regexp" transform="matrix(1,0,0,1,10,22)"><path d="M0,26.899999618530273c10,0 10,-14.699999809265137 20,-14.699999809265137M78,26.899999618530273c-10,0 -10,-14.699999809265137 -20,-14.699999809265137M0,26.899999618530273c10,0 10,14.700000190734862 20,14.700000190734862M78,26.899999618530273c-10,0 -10,14.700000190734862 -20,14.700000190734862"></path><g class="regexp-matches" transform="matrix(1,0,0,1,20,0)"><path d="M0,12.199999809265137h5.3333M32.66663396911621,12.199999809265137H38M0,41.599999809265135h0M38,41.599999809265135H38"></path><g class="match match-fragment literal" transform="matrix(1,0,0,1,5.3333,0)"><g class="label"><rect width="27.33333396911621" height="24.399999618530273" rx="3" ry="3"></rect><text x="0" y="0" transform="matrix(1,0,0,1,5,17.2)"><tspan class="quote">“</tspan><tspan>tit</tspan><tspan class="quote">”</tspan></text></g></g><g class="match match-fragment literal" transform="matrix(1,0,0,1,0,29.4)"><g class="label"><rect width="38" height="24.399999618530273" rx="3" ry="3"></rect><text x="0" y="0" transform="matrix(1,0,0,1,5,17.2)"><tspan class="quote">“</tspan><tspan>agh</tspan><tspan class="quote">”</tspan></text></g></g></g></g></g><g class="match-fragment" transform="matrix(1,0,0,1,142.6667,68.7)"><path d="M10,12.199999809265137q-10,0 -10,10v2.1999998092651367q0,10 10,10h32q10,0 10,-10v-2.1999998092651367q0,-10 -10,-10M52,27.199999809265137l5,-5m-5,5l-5,-5"></path><g class="escape" transform="matrix(1,0,0,1,10,0)"><g class="label"><rect width="32" height="24.399999618530273" rx="3" ry="3"></rect><text x="0" y="0" transform="matrix(1,0,0,1,5,17.2)"><tspan>digit</tspan></text></g></g></g><g class="match-fragment" transform="matrix(1,0,0,1,209.6667,36.7)"><path d="M0,44.19999980926514q10,0 10,-10v-24.19999998807907q0,-10 10,-10h109.8499984741211q10,0 10,10v24.19999998807907q0,10 10,10M15,44.19999980926514q-10,0 -10,10v36.60000306367874q0,10 10,10h119.8499984741211q10,0 10,-10v-36.60000306367874q0,-10 -10,-10M144.8499984741211,59.19999980926514l5,-5m-5,5l-5,-5"></path><g class="subexp" transform="matrix(1,0,0,1,15,10)"><rect class="subexp-box" rx="3" ry="3" transform="matrix(1,0,0,1,0,12)" width="119.8499984741211" height="68.80000305175781"></rect><text x="0" y="0" class="subexp-label" transform="matrix(1,0,0,1,0,12)"><tspan>group #38</tspan></text><g class="regexp match" transform="matrix(1,0,0,1,10,22)"><path d="M22,12.199999809265137H42"></path><g class="match-fragment literal" transform="matrix(1,0,0,1,0,0)"><g class="label"><rect width="22" height="24.399999618530273" rx="3" ry="3"></rect><text x="0" y="0" transform="matrix(1,0,0,1,5,17.2)"><tspan class="quote">“</tspan><tspan>-</tspan><tspan class="quote">”</tspan></text></g></g><g class="match-fragment" transform="matrix(1,0,0,1,32,0)"><path d="M10,12.199999809265137q-10,0 -10,10v2.1999998092651367q0,10 10,10h32q10,0 10,-10v-2.1999998092651367q0,-10 -10,-10M52,27.199999809265137l5,-5m-5,5l-5,-5"></path><g class="escape" transform="matrix(1,0,0,1,10,0)"><g class="label"><rect width="32" height="24.399999618530273" rx="3" ry="3"></rect><text x="0" y="0" transform="matrix(1,0,0,1,5,17.2)"><tspan>digit</tspan></text></g></g><text x="0" y="0" class="repeat-label" transform="matrix(1,0,0,1,0,46.4)"><tspan>at most 2 times</tspan><title><text x="0" y="0">repeats at most 3 times in total</text></title></text></g></g></g><text x="0" y="0" class="repeat-label" transform="matrix(1,0,0,1,77,112.8)"><tspan>at most 2 times</tspan><title><text x="0" y="0">repeats at most 3 times in total</text></title></text></g><g class="match-fragment" transform="matrix(1,0,0,1,369.5167,0)"><path d="M0,80.89999980926514q10,0 10,-10v-60.899999988079074q0,-10 10,-10h369.5167236328125q10,0 10,10v60.899999988079074q0,10 10,10"></path><g class="subexp" transform="matrix(1,0,0,1,15,10)"><rect class="subexp-box" rx="3" ry="3" transform="matrix(1,0,0,1,0,12)" width="379.5167236328125" height="139.9000015258789"></rect><text x="0" y="0" class="subexp-label" transform="matrix(1,0,0,1,0,12)"><tspan>group #39</tspan></text><g class="regexp match" transform="matrix(1,0,0,1,10,22)"><path d="M24.66666603088379,48.89999980926514H44.6667M122.66669999999999,48.89999961853027H152.6667M184.6667,48.89999980926514H234.6667"></path><g class="match-fragment literal" transform="matrix(1,0,0,1,0,36.7)"><g class="label"><rect width="24.666666984558105" height="24.399999618530273" rx="3" ry="3"></rect><text x="0" y="0" transform="matrix(1,0,0,1,5,17.2)"><tspan class="quote">“</tspan><tspan>_</tspan><tspan class="quote">”</tspan></text></g></g><g class="match-fragment subexp" transform="matrix(1,0,0,1,34.6667,0)"><rect class="subexp-box" rx="3" ry="3" transform="matrix(1,0,0,1,0,12)" width="98" height="73.79999923706055"></rect><text x="0" y="0" class="subexp-label" transform="matrix(1,0,0,1,0,12)"><tspan>group #40</tspan></text><g class="regexp" transform="matrix(1,0,0,1,10,22)"><path d="M0,26.899999618530273c10,0 10,-14.699999809265137 20,-14.699999809265137M78,26.899999618530273c-10,0 -10,-14.699999809265137 -20,-14.699999809265137M0,26.899999618530273c10,0 10,14.700000190734862 20,14.700000190734862M78,26.899999618530273c-10,0 -10,14.700000190734862 -20,14.700000190734862"></path><g class="regexp-matches" transform="matrix(1,0,0,1,20,0)"><path d="M0,12.199999809265137h3.6667M34.33336603088379,12.199999809265137H38M0,41.599999809265135h0M38,41.599999809265135H38"></path><g class="match match-fragment literal" transform="matrix(1,0,0,1,3.6667,0)"><g class="label"><rect width="30.66666603088379" height="24.399999618530273" rx="3" ry="3"></rect><text x="0" y="0" transform="matrix(1,0,0,1,5,17.2)"><tspan class="quote">“</tspan><tspan>stt</tspan><tspan class="quote">”</tspan></text></g></g><g class="match match-fragment literal" transform="matrix(1,0,0,1,0,29.4)"><g class="label"><rect width="38" height="24.399999618530273" rx="3" ry="3"></rect><text x="0" y="0" transform="matrix(1,0,0,1,5,17.2)"><tspan class="quote">“</tspan><tspan>agh</tspan><tspan class="quote">”</tspan></text></g></g></g></g></g><g class="match-fragment" transform="matrix(1,0,0,1,142.6667,36.7)"><path d="M10,12.199999809265137q-10,0 -10,10v2.1999998092651367q0,10 10,10h32q10,0 10,-10v-2.1999998092651367q0,-10 -10,-10M52,27.199999809265137l5,-5m-5,5l-5,-5"></path><g class="escape" transform="matrix(1,0,0,1,10,0)"><g class="label"><rect width="32" height="24.399999618530273" rx="3" ry="3"></rect><text x="0" y="0" transform="matrix(1,0,0,1,5,17.2)"><tspan>digit</tspan></text></g></g></g><g class="match-fragment" transform="matrix(1,0,0,1,209.6667,4.7)"><path d="M0,44.19999980926514q10,0 10,-10v-24.19999998807907q0,-10 10,-10h109.8499984741211q10,0 10,10v24.19999998807907q0,10 10,10M15,44.19999980926514q-10,0 -10,10v36.60000306367874q0,10 10,10h119.8499984741211q10,0 10,-10v-36.60000306367874q0,-10 -10,-10M144.8499984741211,59.19999980926514l5,-5m-5,5l-5,-5"></path><g class="subexp" transform="matrix(1,0,0,1,15,10)"><rect class="subexp-box" rx="3" ry="3" transform="matrix(1,0,0,1,0,12)" width="119.8499984741211" height="68.80000305175781"></rect><text x="0" y="0" class="subexp-label" transform="matrix(1,0,0,1,0,12)"><tspan>group #41</tspan></text><g class="regexp match" transform="matrix(1,0,0,1,10,22)"><path d="M22,12.199999809265137H42"></path><g class="match-fragment literal" transform="matrix(1,0,0,1,0,0)"><g class="label"><rect width="22" height="24.399999618530273" rx="3" ry="3"></rect><text x="0" y="0" transform="matrix(1,0,0,1,5,17.2)"><tspan class="quote">“</tspan><tspan>-</tspan><tspan class="quote">”</tspan></text></g></g><g class="match-fragment" transform="matrix(1,0,0,1,32,0)"><path d="M10,12.199999809265137q-10,0 -10,10v2.1999998092651367q0,10 10,10h32q10,0 10,-10v-2.1999998092651367q0,-10 -10,-10M52,27.199999809265137l5,-5m-5,5l-5,-5"></path><g class="escape" transform="matrix(1,0,0,1,10,0)"><g class="label"><rect width="32" height="24.399999618530273" rx="3" ry="3"></rect><text x="0" y="0" transform="matrix(1,0,0,1,5,17.2)"><tspan>digit</tspan></text></g></g><text x="0" y="0" class="repeat-label" transform="matrix(1,0,0,1,0,46.4)"><tspan>at most 2 times</tspan><title><text x="0" y="0">repeats at most 3 times in total</text></title></text></g></g></g><text x="0" y="0" class="repeat-label" transform="matrix(1,0,0,1,77,112.8)"><tspan>at most 2 times</tspan><title><text x="0" y="0">repeats at most 3 times in total</text></title></text></g></g></g></g></g></g></g><g class="match-fragment" transform="matrix(1,0,0,1,1678.0669,32)"><path d="M0,80.89999980926514q10,0 10,-10v-60.899999988079074q0,-10 10,-10h369.5167236328125q10,0 10,10v60.899999988079074q0,10 10,10"></path><g class="subexp" transform="matrix(1,0,0,1,15,10)"><rect class="subexp-box" rx="3" ry="3" transform="matrix(1,0,0,1,0,12)" width="379.5167236328125" height="139.9000015258789"></rect><text x="0" y="0" class="subexp-label" transform="matrix(1,0,0,1,0,12)"><tspan>group #42</tspan></text><g class="regexp match" transform="matrix(1,0,0,1,10,22)"><path d="M24.66666603088379,48.89999980926514H44.6667M122.66669999999999,48.89999961853027H152.6667M184.6667,48.89999980926514H234.6667"></path><g class="match-fragment literal" transform="matrix(1,0,0,1,0,36.7)"><g class="label"><rect width="24.666666984558105" height="24.399999618530273" rx="3" ry="3"></rect><text x="0" y="0" transform="matrix(1,0,0,1,5,17.2)"><tspan class="quote">“</tspan><tspan>_</tspan><tspan class="quote">”</tspan></text></g></g><g class="match-fragment subexp" transform="matrix(1,0,0,1,34.6667,0)"><rect class="subexp-box" rx="3" ry="3" transform="matrix(1,0,0,1,0,12)" width="98" height="73.79999923706055"></rect><text x="0" y="0" class="subexp-label" transform="matrix(1,0,0,1,0,12)"><tspan>group #43</tspan></text><g class="regexp" transform="matrix(1,0,0,1,10,22)"><path d="M0,26.899999618530273c10,0 10,-14.699999809265137 20,-14.699999809265137M78,26.899999618530273c-10,0 -10,-14.699999809265137 -20,-14.699999809265137M0,26.899999618530273c10,0 10,14.700000190734862 20,14.700000190734862M78,26.899999618530273c-10,0 -10,14.700000190734862 -20,14.700000190734862"></path><g class="regexp-matches" transform="matrix(1,0,0,1,20,0)"><path d="M0,12.199999809265137h0.3333M37.66663206176758,12.199999809265137H38M0,41.599999809265135h0M38,41.599999809265135H38"></path><g class="match match-fragment literal" transform="matrix(1,0,0,1,0.3333,0)"><g class="label"><rect width="37.33333396911621" height="24.399999618530273" rx="3" ry="3"></rect><text x="0" y="0" transform="matrix(1,0,0,1,5,17.2)"><tspan class="quote">“</tspan><tspan>cap</tspan><tspan class="quote">”</tspan></text></g></g><g class="match match-fragment literal" transform="matrix(1,0,0,1,0,29.4)"><g class="label"><rect width="38" height="24.399999618530273" rx="3" ry="3"></rect><text x="0" y="0" transform="matrix(1,0,0,1,5,17.2)"><tspan class="quote">“</tspan><tspan>agh</tspan><tspan class="quote">”</tspan></text></g></g></g></g></g><g class="match-fragment" transform="matrix(1,0,0,1,142.6667,36.7)"><path d="M10,12.199999809265137q-10,0 -10,10v2.1999998092651367q0,10 10,10h32q10,0 10,-10v-2.1999998092651367q0,-10 -10,-10M52,27.199999809265137l5,-5m-5,5l-5,-5"></path><g class="escape" transform="matrix(1,0,0,1,10,0)"><g class="label"><rect width="32" height="24.399999618530273" rx="3" ry="3"></rect><text x="0" y="0" transform="matrix(1,0,0,1,5,17.2)"><tspan>digit</tspan></text></g></g></g><g class="match-fragment" transform="matrix(1,0,0,1,209.6667,4.7)"><path d="M0,44.19999980926514q10,0 10,-10v-24.19999998807907q0,-10 10,-10h109.8499984741211q10,0 10,10v24.19999998807907q0,10 10,10M15,44.19999980926514q-10,0 -10,10v36.60000306367874q0,10 10,10h119.8499984741211q10,0 10,-10v-36.60000306367874q0,-10 -10,-10M144.8499984741211,59.19999980926514l5,-5m-5,5l-5,-5"></path><g class="subexp" transform="matrix(1,0,0,1,15,10)"><rect class="subexp-box" rx="3" ry="3" transform="matrix(1,0,0,1,0,12)" width="119.8499984741211" height="68.80000305175781"></rect><text x="0" y="0" class="subexp-label" transform="matrix(1,0,0,1,0,12)"><tspan>group #44</tspan></text><g class="regexp match" transform="matrix(1,0,0,1,10,22)"><path d="M22,12.199999809265137H42"></path><g class="match-fragment literal" transform="matrix(1,0,0,1,0,0)"><g class="label"><rect width="22" height="24.399999618530273" rx="3" ry="3"></rect><text x="0" y="0" transform="matrix(1,0,0,1,5,17.2)"><tspan class="quote">“</tspan><tspan>-</tspan><tspan class="quote">”</tspan></text></g></g><g class="match-fragment" transform="matrix(1,0,0,1,32,0)"><path d="M10,12.199999809265137q-10,0 -10,10v2.1999998092651367q0,10 10,10h32q10,0 10,-10v-2.1999998092651367q0,-10 -10,-10M52,27.199999809265137l5,-5m-5,5l-5,-5"></path><g class="escape" transform="matrix(1,0,0,1,10,0)"><g class="label"><rect width="32" height="24.399999618530273" rx="3" ry="3"></rect><text x="0" y="0" transform="matrix(1,0,0,1,5,17.2)"><tspan>digit</tspan></text></g></g><text x="0" y="0" class="repeat-label" transform="matrix(1,0,0,1,0,46.4)"><tspan>at most 2 times</tspan><title><text x="0" y="0">repeats at most 3 times in total</text></title></text></g></g></g><text x="0" y="0" class="repeat-label" transform="matrix(1,0,0,1,77,112.8)"><tspan>at most 2 times</tspan><title><text x="0" y="0">repeats at most 3 times in total</text></title></text></g></g></g></g><g class="match-fragment" transform="matrix(1,0,0,1,2097.5836,0)"><path d="M0,112.89999980926514q10,0 10,-10v-92.89999998807907q0,-10 10,-10h789.033447265625q10,0 10,10v92.89999998807907q0,10 10,10"></path><g class="subexp" transform="matrix(1,0,0,1,15,10)"><rect class="subexp-box" rx="3" ry="3" transform="matrix(1,0,0,1,0,12)" width="799.033447265625" height="181.89999389648438"></rect><text x="0" y="0" class="subexp-label" transform="matrix(1,0,0,1,0,12)"><tspan>group #45</tspan></text><g class="regexp match" transform="matrix(1,0,0,1,10,22)"><path d="M24.66666603088379,80.89999980926514H44.6667M122.66669999999999,80.89999961853027H152.6667M184.6667,80.89999980926514H234.6667M308.6667,80.89999980926514H394.5167"></path><g class="match-fragment literal" transform="matrix(1,0,0,1,0,68.7)"><g class="label"><rect width="24.666666984558105" height="24.399999618530273" rx="3" ry="3"></rect><text x="0" y="0" transform="matrix(1,0,0,1,5,17.2)"><tspan class="quote">“</tspan><tspan>_</tspan><tspan class="quote">”</tspan></text></g></g><g class="match-fragment subexp" transform="matrix(1,0,0,1,34.6667,32)"><rect class="subexp-box" rx="3" ry="3" transform="matrix(1,0,0,1,0,12)" width="98" height="73.79999923706055"></rect><text x="0" y="0" class="subexp-label" transform="matrix(1,0,0,1,0,12)"><tspan>group #46</tspan></text><g class="regexp" transform="matrix(1,0,0,1,10,22)"><path d="M0,26.899999618530273c10,0 10,-14.699999809265137 20,-14.699999809265137M78,26.899999618530273c-10,0 -10,-14.699999809265137 -20,-14.699999809265137M0,26.899999618530273c10,0 10,14.700000190734862 20,14.700000190734862M78,26.899999618530273c-10,0 -10,14.700000190734862 -20,14.700000190734862"></path><g class="regexp-matches" transform="matrix(1,0,0,1,20,0)"><path d="M0,12.199999809265137h0.6667M37.33336793823242,12.199999809265137H38M0,41.599999809265135h0M38,41.599999809265135H38"></path><g class="match match-fragment literal" transform="matrix(1,0,0,1,0.6667,0)"><g class="label"><rect width="36.66666793823242" height="24.399999618530273" rx="3" ry="3"></rect><text x="0" y="0" transform="matrix(1,0,0,1,5,17.2)"><tspan class="quote">“</tspan><tspan>sec</tspan><tspan class="quote">”</tspan></text></g></g><g class="match match-fragment literal" transform="matrix(1,0,0,1,0,29.4)"><g class="label"><rect width="38" height="24.399999618530273" rx="3" ry="3"></rect><text x="0" y="0" transform="matrix(1,0,0,1,5,17.2)"><tspan class="quote">“</tspan><tspan>agh</tspan><tspan class="quote">”</tspan></text></g></g></g></g></g><g class="match-fragment" transform="matrix(1,0,0,1,142.6667,68.7)"><path d="M10,12.199999809265137q-10,0 -10,10v2.1999998092651367q0,10 10,10h32q10,0 10,-10v-2.1999998092651367q0,-10 -10,-10M52,27.199999809265137l5,-5m-5,5l-5,-5"></path><g class="escape" transform="matrix(1,0,0,1,10,0)"><g class="label"><rect width="32" height="24.399999618530273" rx="3" ry="3"></rect><text x="0" y="0" transform="matrix(1,0,0,1,5,17.2)"><tspan>digit</tspan></text></g></g></g><g class="match-fragment" transform="matrix(1,0,0,1,209.6667,36.7)"><path d="M0,44.19999980926514q10,0 10,-10v-24.19999998807907q0,-10 10,-10h109.8499984741211q10,0 10,10v24.19999998807907q0,10 10,10M15,44.19999980926514q-10,0 -10,10v36.60000306367874q0,10 10,10h119.8499984741211q10,0 10,-10v-36.60000306367874q0,-10 -10,-10M144.8499984741211,59.19999980926514l5,-5m-5,5l-5,-5"></path><g class="subexp" transform="matrix(1,0,0,1,15,10)"><rect class="subexp-box" rx="3" ry="3" transform="matrix(1,0,0,1,0,12)" width="119.8499984741211" height="68.80000305175781"></rect><text x="0" y="0" class="subexp-label" transform="matrix(1,0,0,1,0,12)"><tspan>group #47</tspan></text><g class="regexp match" transform="matrix(1,0,0,1,10,22)"><path d="M22,12.199999809265137H42"></path><g class="match-fragment literal" transform="matrix(1,0,0,1,0,0)"><g class="label"><rect width="22" height="24.399999618530273" rx="3" ry="3"></rect><text x="0" y="0" transform="matrix(1,0,0,1,5,17.2)"><tspan class="quote">“</tspan><tspan>-</tspan><tspan class="quote">”</tspan></text></g></g><g class="match-fragment" transform="matrix(1,0,0,1,32,0)"><path d="M10,12.199999809265137q-10,0 -10,10v2.1999998092651367q0,10 10,10h32q10,0 10,-10v-2.1999998092651367q0,-10 -10,-10M52,27.199999809265137l5,-5m-5,5l-5,-5"></path><g class="escape" transform="matrix(1,0,0,1,10,0)"><g class="label"><rect width="32" height="24.399999618530273" rx="3" ry="3"></rect><text x="0" y="0" transform="matrix(1,0,0,1,5,17.2)"><tspan>digit</tspan></text></g></g><text x="0" y="0" class="repeat-label" transform="matrix(1,0,0,1,0,46.4)"><tspan>at most 2 times</tspan><title><text x="0" y="0">repeats at most 3 times in total</text></title></text></g></g></g><text x="0" y="0" class="repeat-label" transform="matrix(1,0,0,1,77,112.8)"><tspan>at most 2 times</tspan><title><text x="0" y="0">repeats at most 3 times in total</text></title></text></g><g class="match-fragment" transform="matrix(1,0,0,1,369.5167,0)"><path d="M0,80.89999980926514q10,0 10,-10v-60.899999988079074q0,-10 10,-10h369.5167236328125q10,0 10,10v60.899999988079074q0,10 10,10"></path><g class="subexp" transform="matrix(1,0,0,1,15,10)"><rect class="subexp-box" rx="3" ry="3" transform="matrix(1,0,0,1,0,12)" width="379.5167236328125" height="139.9000015258789"></rect><text x="0" y="0" class="subexp-label" transform="matrix(1,0,0,1,0,12)"><tspan>group #48</tspan></text><g class="regexp match" transform="matrix(1,0,0,1,10,22)"><path d="M24.66666603088379,48.89999980926514H44.6667M122.66669999999999,48.89999961853027H152.6667M184.6667,48.89999980926514H234.6667"></path><g class="match-fragment literal" transform="matrix(1,0,0,1,0,36.7)"><g class="label"><rect width="24.666666984558105" height="24.399999618530273" rx="3" ry="3"></rect><text x="0" y="0" transform="matrix(1,0,0,1,5,17.2)"><tspan class="quote">“</tspan><tspan>_</tspan><tspan class="quote">”</tspan></text></g></g><g class="match-fragment subexp" transform="matrix(1,0,0,1,34.6667,0)"><rect class="subexp-box" rx="3" ry="3" transform="matrix(1,0,0,1,0,12)" width="98" height="73.79999923706055"></rect><text x="0" y="0" class="subexp-label" transform="matrix(1,0,0,1,0,12)"><tspan>group #49</tspan></text><g class="regexp" transform="matrix(1,0,0,1,10,22)"><path d="M0,26.899999618530273c10,0 10,-14.699999809265137 20,-14.699999809265137M78,26.899999618530273c-10,0 -10,-14.699999809265137 -20,-14.699999809265137M0,26.899999618530273c10,0 10,14.700000190734862 20,14.700000190734862M78,26.899999618530273c-10,0 -10,14.700000190734862 -20,14.700000190734862"></path><g class="regexp-matches" transform="matrix(1,0,0,1,20,0)"><path d="M0,12.199999809265137h0.3333M37.66663206176758,12.199999809265137H38M0,41.599999809265135h0M38,41.599999809265135H38"></path><g class="match match-fragment literal" transform="matrix(1,0,0,1,0.3333,0)"><g class="label"><rect width="37.33333396911621" height="24.399999618530273" rx="3" ry="3"></rect><text x="0" y="0" transform="matrix(1,0,0,1,5,17.2)"><tspan class="quote">“</tspan><tspan>sub</tspan><tspan class="quote">”</tspan></text></g></g><g class="match match-fragment literal" transform="matrix(1,0,0,1,0,29.4)"><g class="label"><rect width="38" height="24.399999618530273" rx="3" ry="3"></rect><text x="0" y="0" transform="matrix(1,0,0,1,5,17.2)"><tspan class="quote">“</tspan><tspan>agh</tspan><tspan class="quote">”</tspan></text></g></g></g></g></g><g class="match-fragment" transform="matrix(1,0,0,1,142.6667,36.7)"><path d="M10,12.199999809265137q-10,0 -10,10v2.1999998092651367q0,10 10,10h32q10,0 10,-10v-2.1999998092651367q0,-10 -10,-10M52,27.199999809265137l5,-5m-5,5l-5,-5"></path><g class="escape" transform="matrix(1,0,0,1,10,0)"><g class="label"><rect width="32" height="24.399999618530273" rx="3" ry="3"></rect><text x="0" y="0" transform="matrix(1,0,0,1,5,17.2)"><tspan>digit</tspan></text></g></g></g><g class="match-fragment" transform="matrix(1,0,0,1,209.6667,4.7)"><path d="M0,44.19999980926514q10,0 10,-10v-24.19999998807907q0,-10 10,-10h109.8499984741211q10,0 10,10v24.19999998807907q0,10 10,10M15,44.19999980926514q-10,0 -10,10v36.60000306367874q0,10 10,10h119.8499984741211q10,0 10,-10v-36.60000306367874q0,-10 -10,-10M144.8499984741211,59.19999980926514l5,-5m-5,5l-5,-5"></path><g class="subexp" transform="matrix(1,0,0,1,15,10)"><rect class="subexp-box" rx="3" ry="3" transform="matrix(1,0,0,1,0,12)" width="119.8499984741211" height="68.80000305175781"></rect><text x="0" y="0" class="subexp-label" transform="matrix(1,0,0,1,0,12)"><tspan>group #50</tspan></text><g class="regexp match" transform="matrix(1,0,0,1,10,22)"><path d="M22,12.199999809265137H42"></path><g class="match-fragment literal" transform="matrix(1,0,0,1,0,0)"><g class="label"><rect width="22" height="24.399999618530273" rx="3" ry="3"></rect><text x="0" y="0" transform="matrix(1,0,0,1,5,17.2)"><tspan class="quote">“</tspan><tspan>-</tspan><tspan class="quote">”</tspan></text></g></g><g class="match-fragment" transform="matrix(1,0,0,1,32,0)"><path d="M10,12.199999809265137q-10,0 -10,10v2.1999998092651367q0,10 10,10h32q10,0 10,-10v-2.1999998092651367q0,-10 -10,-10M52,27.199999809265137l5,-5m-5,5l-5,-5"></path><g class="escape" transform="matrix(1,0,0,1,10,0)"><g class="label"><rect width="32" height="24.399999618530273" rx="3" ry="3"></rect><text x="0" y="0" transform="matrix(1,0,0,1,5,17.2)"><tspan>digit</tspan></text></g></g><text x="0" y="0" class="repeat-label" transform="matrix(1,0,0,1,0,46.4)"><tspan>at most 2 times</tspan><title><text x="0" y="0">repeats at most 3 times in total</text></title></text></g></g></g><text x="0" y="0" class="repeat-label" transform="matrix(1,0,0,1,77,112.8)"><tspan>at most 2 times</tspan><title><text x="0" y="0">repeats at most 3 times in total</text></title></text></g></g></g></g></g></g></g></g></g></g></g></g></g><g class="match-fragment literal" transform="matrix(1,0,0,1,4418.8337,296.25)"><g class="label"><rect width="44" height="24.399999618530273" rx="3" ry="3"></rect><text x="0" y="0" transform="matrix(1,0,0,1,5,17.2)"><tspan class="quote">“</tspan><tspan>_omi</tspan><tspan class="quote">”</tspan></text></g></g><g class="match-fragment" transform="matrix(1,0,0,1,4472.8337,296.25)"><path d="M10,12.199999809265137q-10,0 -10,10v2.1999998092651367q0,10 10,10h32q10,0 10,-10v-2.1999998092651367q0,-10 -10,-10M52,27.199999809265137l5,-5m-5,5l-5,-5"></path><g class="escape" transform="matrix(1,0,0,1,10,0)"><g class="label"><rect width="32" height="24.399999618530273" rx="3" ry="3"></rect><text x="0" y="0" transform="matrix(1,0,0,1,5,17.2)"><tspan>digit</tspan></text></g></g></g></g><path d="M20,308.44999980926514H0M4524.8337,308.44999980926514H4549.83349609375"></path><circle cx="0" cy="308.44999980926514" r="5"></circle><circle cx="4549.83349609375" cy="308.44999980926514" r="5"></circle></g></svg>
        