
          <svg xmlns="http://www.w3.org/2000/svg" xmlns:cc="http://creativecommons.org/ns#" xmlns:rdf="http://www.w3.org/1999/02/22-rdf-syntax-ns#" version="1.1" width="3961.00048828125" height="403.29998779296875">
            <defs>
              <style type="text/css">svg {
          background-color: #fff; }
        
        .root text,
        .root tspan {
          font: 12px Arial; }
        
        .root path {
          fill-opacity: 0;
          stroke-width: 2px;
          stroke: #000; }
        
        .root circle {
          fill: #6b6659;
          stroke-width: 2px;
          stroke: #000; }
        
        .anchor text, .any-character text {
          fill: #fff; }
        
        .anchor rect, .any-character rect {
          fill: #6b6659; }
        
        .escape text, .charset-escape text, .literal text {
          fill: #000; }
        
        .escape rect, .charset-escape rect {
          fill: #bada55; }
        
        .literal rect {
          fill: #dae9e5; }
        
        .charset .charset-box {
          fill: #cbcbba; }
        
        .subexp .subexp-label tspan,
        .charset .charset-label tspan,
        .match-fragment .repeat-label tspan {
          font-size: 10px; }
        
        .repeat-label {
          cursor: help; }
        
        .subexp .subexp-label tspan,
        .charset .charset-label tspan {
          dominant-baseline: text-after-edge; }
        
        .subexp .subexp-box {
          stroke: #908c83;
          stroke-dasharray: 6,2;
          stroke-width: 2px;
          fill-opacity: 0; }
        
        .quote {
          fill: #908c83; }
        </style>
            </defs>
            <metadata>
              <rdf:rdf>
                <cc:license rdf:about="http://creativecommons.org/licenses/by/3.0/">
                  <cc:permits rdf:resource="http://creativecommons.org/ns#Reproduction"></cc:permits>
                  <cc:permits rdf:resource="http://creativecommons.org/ns#Distribution"></cc:permits>
                  <cc:requires rdf:resource="http://creativecommons.org/ns#Notice"></cc:requires>
                  <cc:requires rdf:resource="http://creativecommons.org/ns#Attribution"></cc:requires>
                  <cc:permits rdf:resource="http://creativecommons.org/ns#DerivativeWorks"></cc:permits>
                </cc:license>
              </rdf:rdf>
            </metadata>
          <desc>Created with Snap</desc><g class="root" transform="matrix(1,0,0,1,15,10)"><g class="regexp match" transform="matrix(1,0,0,1,10,0)"><path d="M1420.6669660308837,233.29999980926516H1565.6669M3460.667166030884,233.29999961853028H3505.6671M3583.6671,233.29999961853028H3613.6671"></path><g class="match-fragment" transform="matrix(1,0,0,1,0,49.3)"><path d="M0,183.99999980926515q10,0 10,-10v-163.99999998807908q0,-10 10,-10h1405.6668701171875q10,0 10,10v163.99999998807908q0,10 10,10"></path><g class="subexp" transform="matrix(1,0,0,1,15,10)"><rect class="subexp-box" rx="3" ry="3" transform="matrix(1,0,0,1,0,12)" width="1415.6668701171875" height="312"></rect><text x="0" y="0" class="subexp-label" transform="matrix(1,0,0,1,0,12)"><tspan>group #1</tspan></text><g class="regexp match" transform="matrix(1,0,0,1,10,22)"><path d="M32,151.99999980926515H52M339.3334045410156,151.99999542236327H369.3334M879.3335220703125,152H924.3335M1181.666866394043,151.99999980926515H1256.6669M1294.0002320617675,151.99999980926515H1314.0003M1346.0003,151.99999980926515H1371.0003"></path><g class="match-fragment literal" transform="matrix(1,0,0,1,0,139.8)"><g class="label"><rect width="32" height="24.399999618530273" rx="3" ry="3"></rect><text x="0" y="0" transform="matrix(1,0,0,1,5,17.2)"><tspan class="quote">“</tspan><tspan>art</tspan><tspan class="quote">”</tspan></text></g></g><g class="match-fragment subexp" transform="matrix(1,0,0,1,42,46.7)"><rect class="subexp-box" rx="3" ry="3" transform="matrix(1,0,0,1,0,12)" width="307.3334045410156" height="186.59999084472656"></rect><text x="0" y="0" class="subexp-label" transform="matrix(1,0,0,1,0,12)"><tspan>group #2</tspan></text><g class="regexp" transform="matrix(1,0,0,1,10,22)"><path d="M10,71.19999980926514q0,-10 10,-10M277.3334045410156,71.19999980926514q0,-10 -10,-10M10,144.39999980926513q0,10 10,10M277.3334045410156,144.39999980926513q0,10 -10,10M0,83.29999542236328q10,0 10,-10V71.19999980926514M287.3334045410156,83.29999542236328q-10,0 -10,-10V71.19999980926514M0,83.29999542236328q10,0 10,10V144.39999980926513M287.3334045410156,83.29999542236328q-10,0 -10,10V144.39999980926513"></path><g class="regexp-matches" transform="matrix(1,0,0,1,20,0)"><path d="M0,61.19999980926514h10M207.33336639404297,61.19999980926514H247.33340454101562M0,154.39999980926513h108M139.3333339691162,154.39999980926513H247.33340454101562"></path><g class="match" transform="matrix(1,0,0,1,0,0)"><path d="M42,61.19999980926514H92"></path><g class="match-fragment" transform="matrix(1,0,0,1,0,49)"><path d="M10,12.199999809265137q-10,0 -10,10v2.1999998092651367q0,10 10,10h32q10,0 10,-10v-2.1999998092651367q0,-10 -10,-10M52,27.199999809265137l5,-5m-5,5l-5,-5"></path><g class="escape" transform="matrix(1,0,0,1,10,0)"><g class="label"><rect width="32" height="24.399999618530273" rx="3" ry="3"></rect><text x="0" y="0" transform="matrix(1,0,0,1,5,17.2)"><tspan>digit</tspan></text></g></g></g><g class="match-fragment" transform="matrix(1,0,0,1,67,0)"><path d="M0,61.19999980926514q10,0 10,-10v-41.19999998807907q0,-10 10,-10h140.33340454101562q10,0 10,10v41.19999998807907q0,10 10,10M15,61.19999980926514q-10,0 -10,10v41.60000306367874q0,10 10,10h150.33340454101562q10,0 10,-10v-41.60000306367874q0,-10 -10,-10M175.33340454101562,76.19999980926514l5,-5m-5,5l-5,-5"></path><g class="subexp" transform="matrix(1,0,0,1,15,10)"><rect class="subexp-box" rx="3" ry="3" transform="matrix(1,0,0,1,0,12)" width="150.33340454101562" height="90.80000305175781"></rect><text x="0" y="0" class="subexp-label" transform="matrix(1,0,0,1,0,12)"><tspan>group #3</tspan></text><g class="regexp match" transform="matrix(1,0,0,1,10,22)"><path d="M22,29.199999809265137H42"></path><g class="match-fragment literal" transform="matrix(1,0,0,1,0,17)"><g class="label"><rect width="22" height="24.399999618530273" rx="3" ry="3"></rect><text x="0" y="0" transform="matrix(1,0,0,1,5,17.2)"><tspan class="quote">“</tspan><tspan>-</tspan><tspan class="quote">”</tspan></text></g></g><g class="match-fragment" transform="matrix(1,0,0,1,32,0)"><path d="M10,29.199999809265137q-10,0 -10,10v7.19999772310257q0,10 10,10h73.33336639404297q10,0 10,-10v-7.19999772310257q0,-10 -10,-10M93.33336639404297,44.19999980926514l5,-5m-5,5l-5,-5"></path><g class="charset" transform="matrix(1,0,0,1,10,0)"><rect class="charset-box" rx="3" ry="3" transform="matrix(1,0,0,1,0,12)" width="73.33336639404297" height="34.39999961853027"></rect><text x="0" y="0" class="charset-label" transform="matrix(1,0,0,1,0,12)"><tspan>One of:</tspan></text><g transform="matrix(1,0,0,1,5,17)"><g class="charset-range" transform="matrix(1,0,0,1,0,0)"><text x="0" y="0" transform="matrix(1,0,0,1,29.6667,16.2)">-</text><g class="literal" transform="matrix(1,0,0,1,0,0)"><g class="label"><rect width="24.666666984558105" height="24.399999618530273" rx="3" ry="3"></rect><text x="0" y="0" transform="matrix(1,0,0,1,5,17.2)"><tspan class="quote">“</tspan><tspan>0</tspan><tspan class="quote">”</tspan></text></g></g><g class="literal" transform="matrix(1,0,0,1,38.6667,0)"><g class="label"><rect width="24.666666984558105" height="24.399999618530273" rx="3" ry="3"></rect><text x="0" y="0" transform="matrix(1,0,0,1,5,17.2)"><tspan class="quote">“</tspan><tspan>9</tspan><tspan class="quote">”</tspan></text></g></g></g></g></g><text x="0" y="0" class="repeat-label" transform="matrix(1,0,0,1,30.4834,68.4)"><tspan>at most 2 times</tspan><title><text x="0" y="0">repeats at most 3 times in total</text></title></text></g></g></g><text x="0" y="0" class="repeat-label" transform="matrix(1,0,0,1,107.4834,134.8)"><tspan>at most 2 times</tspan><title><text x="0" y="0">repeats at most 3 times in total</text></title></text></g></g><g class="match match-fragment literal" transform="matrix(1,0,0,1,108,142.2)"><g class="label"><rect width="31.33333396911621" height="24.399999618530273" rx="3" ry="3"></rect><text x="0" y="0" transform="matrix(1,0,0,1,5,17.2)"><tspan class="quote">“</tspan><tspan>1u</tspan><tspan class="quote">”</tspan></text></g></g></g></g></g><g class="match-fragment subexp" transform="matrix(1,0,0,1,359.3334,0)"><rect class="subexp-box" rx="3" ry="3" transform="matrix(1,0,0,1,0,12)" width="530.0001220703125" height="280"></rect><text x="0" y="0" class="subexp-label" transform="matrix(1,0,0,1,0,12)"><tspan>group #4</tspan></text><g class="regexp" transform="matrix(1,0,0,1,10,22)"><path d="M10,22.199999809265137q0,-10 10,-10M500.0001220703125,22.199999809265137q0,-10 -10,-10M10,146.69999980926514q0,10 10,10M500.0001220703125,146.69999980926514q0,10 -10,10M0,130q10,0 10,-10V22.199999809265137M510.0001220703125,130q-10,0 -10,-10V22.199999809265137M0,130q10,0 10,10V146.69999980926514M510.0001220703125,130q-10,0 -10,10V146.69999980926514"></path><g class="regexp-matches" transform="matrix(1,0,0,1,20,0)"><path d="M0,12.199999809265137h214.6667M255.3333679382324,12.199999809265137H470.0001220703125M0,156.69999980926514h10M450.0001045410156,156.69999980926514H470.0001220703125"></path><g class="match match-fragment literal" transform="matrix(1,0,0,1,214.6667,0)"><g class="label"><rect width="40.66666793823242" height="24.399999618530273" rx="3" ry="3"></rect><text x="0" y="0" transform="matrix(1,0,0,1,5,17.2)"><tspan class="quote">“</tspan><tspan>_cpt</tspan><tspan class="quote">”</tspan></text></g></g><g class="match match-fragment subexp" transform="matrix(1,0,0,1,0,29.4)"><rect class="subexp-box" rx="3" ry="3" transform="matrix(1,0,0,1,0,12)" width="470.0001220703125" height="218.59999084472656"></rect><text x="0" y="0" class="subexp-label" transform="matrix(1,0,0,1,0,12)"><tspan>group #5</tspan></text><g class="regexp match" transform="matrix(1,0,0,1,10,22)"><path d="M24.66666603088379,105.29999980926513H44.6667M122.66669999999999,105.29999961853028H152.6667"></path><g class="match-fragment literal" transform="matrix(1,0,0,1,0,93.1)"><g class="label"><rect width="24.666666984558105" height="24.399999618530273" rx="3" ry="3"></rect><text x="0" y="0" transform="matrix(1,0,0,1,5,17.2)"><tspan class="quote">“</tspan><tspan>_</tspan><tspan class="quote">”</tspan></text></g></g><g class="match-fragment subexp" transform="matrix(1,0,0,1,34.6667,56.4)"><rect class="subexp-box" rx="3" ry="3" transform="matrix(1,0,0,1,0,12)" width="98" height="73.79999923706055"></rect><text x="0" y="0" class="subexp-label" transform="matrix(1,0,0,1,0,12)"><tspan>group #6</tspan></text><g class="regexp" transform="matrix(1,0,0,1,10,22)"><path d="M0,26.899999618530273c10,0 10,-14.699999809265137 20,-14.699999809265137M78,26.899999618530273c-10,0 -10,-14.699999809265137 -20,-14.699999809265137M0,26.899999618530273c10,0 10,14.700000190734862 20,14.700000190734862M78,26.899999618530273c-10,0 -10,14.700000190734862 -20,14.700000190734862"></path><g class="regexp-matches" transform="matrix(1,0,0,1,20,0)"><path d="M0,12.199999809265137h1.3333M36.66663206176758,12.199999809265137H38M0,41.599999809265135h0M38,41.599999809265135H38"></path><g class="match match-fragment literal" transform="matrix(1,0,0,1,1.3333,0)"><g class="label"><rect width="35.33333396911621" height="24.399999618530273" rx="3" ry="3"></rect><text x="0" y="0" transform="matrix(1,0,0,1,5,17.2)"><tspan class="quote">“</tspan><tspan>par</tspan><tspan class="quote">”</tspan></text></g></g><g class="match match-fragment literal" transform="matrix(1,0,0,1,0,29.4)"><g class="label"><rect width="38" height="24.399999618530273" rx="3" ry="3"></rect><text x="0" y="0" transform="matrix(1,0,0,1,5,17.2)"><tspan class="quote">“</tspan><tspan>dpg</tspan><tspan class="quote">”</tspan></text></g></g></g></g></g><g class="match-fragment subexp" transform="matrix(1,0,0,1,142.6667,0)"><rect class="subexp-box" rx="3" ry="3" transform="matrix(1,0,0,1,0,12)" width="307.3334045410156" height="186.59999084472656"></rect><text x="0" y="0" class="subexp-label" transform="matrix(1,0,0,1,0,12)"><tspan>group #7</tspan></text><g class="regexp" transform="matrix(1,0,0,1,10,22)"><path d="M10,71.19999980926514q0,-10 10,-10M277.3334045410156,71.19999980926514q0,-10 -10,-10M10,144.39999980926513q0,10 10,10M277.3334045410156,144.39999980926513q0,10 -10,10M0,83.29999542236328q10,0 10,-10V71.19999980926514M287.3334045410156,83.29999542236328q-10,0 -10,-10V71.19999980926514M0,83.29999542236328q10,0 10,10V144.39999980926513M287.3334045410156,83.29999542236328q-10,0 -10,10V144.39999980926513"></path><g class="regexp-matches" transform="matrix(1,0,0,1,20,0)"><path d="M0,61.19999980926514h10M207.33336639404297,61.19999980926514H247.33340454101562M0,154.39999980926513h108M139.3333339691162,154.39999980926513H247.33340454101562"></path><g class="match" transform="matrix(1,0,0,1,0,0)"><path d="M42,61.19999980926514H92"></path><g class="match-fragment" transform="matrix(1,0,0,1,0,49)"><path d="M10,12.199999809265137q-10,0 -10,10v2.1999998092651367q0,10 10,10h32q10,0 10,-10v-2.1999998092651367q0,-10 -10,-10M52,27.199999809265137l5,-5m-5,5l-5,-5"></path><g class="escape" transform="matrix(1,0,0,1,10,0)"><g class="label"><rect width="32" height="24.399999618530273" rx="3" ry="3"></rect><text x="0" y="0" transform="matrix(1,0,0,1,5,17.2)"><tspan>digit</tspan></text></g></g></g><g class="match-fragment" transform="matrix(1,0,0,1,67,0)"><path d="M0,61.19999980926514q10,0 10,-10v-41.19999998807907q0,-10 10,-10h140.33340454101562q10,0 10,10v41.19999998807907q0,10 10,10M15,61.19999980926514q-10,0 -10,10v41.60000306367874q0,10 10,10h150.33340454101562q10,0 10,-10v-41.60000306367874q0,-10 -10,-10M175.33340454101562,76.19999980926514l5,-5m-5,5l-5,-5"></path><g class="subexp" transform="matrix(1,0,0,1,15,10)"><rect class="subexp-box" rx="3" ry="3" transform="matrix(1,0,0,1,0,12)" width="150.33340454101562" height="90.80000305175781"></rect><text x="0" y="0" class="subexp-label" transform="matrix(1,0,0,1,0,12)"><tspan>group #8</tspan></text><g class="regexp match" transform="matrix(1,0,0,1,10,22)"><path d="M22,29.199999809265137H42"></path><g class="match-fragment literal" transform="matrix(1,0,0,1,0,17)"><g class="label"><rect width="22" height="24.399999618530273" rx="3" ry="3"></rect><text x="0" y="0" transform="matrix(1,0,0,1,5,17.2)"><tspan class="quote">“</tspan><tspan>-</tspan><tspan class="quote">”</tspan></text></g></g><g class="match-fragment" transform="matrix(1,0,0,1,32,0)"><path d="M10,29.199999809265137q-10,0 -10,10v7.19999772310257q0,10 10,10h73.33336639404297q10,0 10,-10v-7.19999772310257q0,-10 -10,-10M93.33336639404297,44.19999980926514l5,-5m-5,5l-5,-5"></path><g class="charset" transform="matrix(1,0,0,1,10,0)"><rect class="charset-box" rx="3" ry="3" transform="matrix(1,0,0,1,0,12)" width="73.33336639404297" height="34.39999961853027"></rect><text x="0" y="0" class="charset-label" transform="matrix(1,0,0,1,0,12)"><tspan>One of:</tspan></text><g transform="matrix(1,0,0,1,5,17)"><g class="charset-range" transform="matrix(1,0,0,1,0,0)"><text x="0" y="0" transform="matrix(1,0,0,1,29.6667,16.2)">-</text><g class="literal" transform="matrix(1,0,0,1,0,0)"><g class="label"><rect width="24.666666984558105" height="24.399999618530273" rx="3" ry="3"></rect><text x="0" y="0" transform="matrix(1,0,0,1,5,17.2)"><tspan class="quote">“</tspan><tspan>0</tspan><tspan class="quote">”</tspan></text></g></g><g class="literal" transform="matrix(1,0,0,1,38.6667,0)"><g class="label"><rect width="24.666666984558105" height="24.399999618530273" rx="3" ry="3"></rect><text x="0" y="0" transform="matrix(1,0,0,1,5,17.2)"><tspan class="quote">“</tspan><tspan>9</tspan><tspan class="quote">”</tspan></text></g></g></g></g></g><text x="0" y="0" class="repeat-label" transform="matrix(1,0,0,1,30.4834,68.4)"><tspan>at most 2 times</tspan><title><text x="0" y="0">repeats at most 3 times in total</text></title></text></g></g></g><text x="0" y="0" class="repeat-label" transform="matrix(1,0,0,1,107.4834,134.8)"><tspan>at most 2 times</tspan><title><text x="0" y="0">repeats at most 3 times in total</text></title></text></g></g><g class="match match-fragment literal" transform="matrix(1,0,0,1,108,142.2)"><g class="label"><rect width="31.33333396911621" height="24.399999618530273" rx="3" ry="3"></rect><text x="0" y="0" transform="matrix(1,0,0,1,5,17.2)"><tspan class="quote">“</tspan><tspan>1u</tspan><tspan class="quote">”</tspan></text></g></g></g></g></g></g></g></g></g></g><g class="match-fragment" transform="matrix(1,0,0,1,899.3335,58.8)"><path d="M0,93.19999980926514q10,0 10,-10v-73.19999998807907q0,-10 10,-10h307.3334045410156q10,0 10,10v73.19999998807907q0,10 10,10"></path><g class="subexp" transform="matrix(1,0,0,1,15,10)"><rect class="subexp-box" rx="3" ry="3" transform="matrix(1,0,0,1,0,12)" width="317.3334045410156" height="157.20001220703125"></rect><text x="0" y="0" class="subexp-label" transform="matrix(1,0,0,1,0,12)"><tspan>group #9</tspan></text><g class="regexp match" transform="matrix(1,0,0,1,10,22)"><path d="M40,61.19999980926514H60M92,61.19999980926514H142"></path><g class="match-fragment literal" transform="matrix(1,0,0,1,0,49)"><g class="label"><rect width="40" height="24.399999618530273" rx="3" ry="3"></rect><text x="0" y="0" transform="matrix(1,0,0,1,5,17.2)"><tspan class="quote">“</tspan><tspan>_inc</tspan><tspan class="quote">”</tspan></text></g></g><g class="match-fragment" transform="matrix(1,0,0,1,50,49)"><path d="M10,12.199999809265137q-10,0 -10,10v2.1999998092651367q0,10 10,10h32q10,0 10,-10v-2.1999998092651367q0,-10 -10,-10M52,27.199999809265137l5,-5m-5,5l-5,-5"></path><g class="escape" transform="matrix(1,0,0,1,10,0)"><g class="label"><rect width="32" height="24.399999618530273" rx="3" ry="3"></rect><text x="0" y="0" transform="matrix(1,0,0,1,5,17.2)"><tspan>digit</tspan></text></g></g></g><g class="match-fragment" transform="matrix(1,0,0,1,117,0)"><path d="M0,61.19999980926514q10,0 10,-10v-41.19999998807907q0,-10 10,-10h140.33340454101562q10,0 10,10v41.19999998807907q0,10 10,10M15,61.19999980926514q-10,0 -10,10v41.60000306367874q0,10 10,10h150.33340454101562q10,0 10,-10v-41.60000306367874q0,-10 -10,-10M175.33340454101562,76.19999980926514l5,-5m-5,5l-5,-5"></path><g class="subexp" transform="matrix(1,0,0,1,15,10)"><rect class="subexp-box" rx="3" ry="3" transform="matrix(1,0,0,1,0,12)" width="150.33340454101562" height="90.80000305175781"></rect><text x="0" y="0" class="subexp-label" transform="matrix(1,0,0,1,0,12)"><tspan>group #10</tspan></text><g class="regexp match" transform="matrix(1,0,0,1,10,22)"><path d="M22,29.199999809265137H42"></path><g class="match-fragment literal" transform="matrix(1,0,0,1,0,17)"><g class="label"><rect width="22" height="24.399999618530273" rx="3" ry="3"></rect><text x="0" y="0" transform="matrix(1,0,0,1,5,17.2)"><tspan class="quote">“</tspan><tspan>-</tspan><tspan class="quote">”</tspan></text></g></g><g class="match-fragment" transform="matrix(1,0,0,1,32,0)"><path d="M10,29.199999809265137q-10,0 -10,10v7.19999772310257q0,10 10,10h73.33336639404297q10,0 10,-10v-7.19999772310257q0,-10 -10,-10M93.33336639404297,44.19999980926514l5,-5m-5,5l-5,-5"></path><g class="charset" transform="matrix(1,0,0,1,10,0)"><rect class="charset-box" rx="3" ry="3" transform="matrix(1,0,0,1,0,12)" width="73.33336639404297" height="34.39999961853027"></rect><text x="0" y="0" class="charset-label" transform="matrix(1,0,0,1,0,12)"><tspan>One of:</tspan></text><g transform="matrix(1,0,0,1,5,17)"><g class="charset-range" transform="matrix(1,0,0,1,0,0)"><text x="0" y="0" transform="matrix(1,0,0,1,29.6667,16.2)">-</text><g class="literal" transform="matrix(1,0,0,1,0,0)"><g class="label"><rect width="24.666666984558105" height="24.399999618530273" rx="3" ry="3"></rect><text x="0" y="0" transform="matrix(1,0,0,1,5,17.2)"><tspan class="quote">“</tspan><tspan>0</tspan><tspan class="quote">”</tspan></text></g></g><g class="literal" transform="matrix(1,0,0,1,38.6667,0)"><g class="label"><rect width="24.666666984558105" height="24.399999618530273" rx="3" ry="3"></rect><text x="0" y="0" transform="matrix(1,0,0,1,5,17.2)"><tspan class="quote">“</tspan><tspan>9</tspan><tspan class="quote">”</tspan></text></g></g></g></g></g><text x="0" y="0" class="repeat-label" transform="matrix(1,0,0,1,30.4834,68.4)"><tspan>at most 2 times</tspan><title><text x="0" y="0">repeats at most 3 times in total</text></title></text></g></g></g><text x="0" y="0" class="repeat-label" transform="matrix(1,0,0,1,107.4834,134.8)"><tspan>at most 2 times</tspan><title><text x="0" y="0">repeats at most 3 times in total</text></title></text></g></g></g></g><g class="match-fragment literal" transform="matrix(1,0,0,1,1256.6669,139.8)"><g class="label"><rect width="37.33333396911621" height="24.399999618530273" rx="3" ry="3"></rect><text x="0" y="0" transform="matrix(1,0,0,1,5,17.2)"><tspan class="quote">“</tspan><tspan>_alt</tspan><tspan class="quote">”</tspan></text></g></g><g class="match-fragment" transform="matrix(1,0,0,1,1304.0003,139.8)"><path d="M10,12.199999809265137q-10,0 -10,10v2.1999998092651367q0,10 10,10h32q10,0 10,-10v-2.1999998092651367q0,-10 -10,-10M52,27.199999809265137l5,-5m-5,5l-5,-5"></path><g class="escape" transform="matrix(1,0,0,1,10,0)"><g class="label"><rect width="32" height="24.399999618530273" rx="3" ry="3"></rect><text x="0" y="0" transform="matrix(1,0,0,1,5,17.2)"><tspan>digit</tspan></text></g></g></g><g class="match-fragment literal" transform="matrix(1,0,0,1,1371.0003,139.8)"><g class="label"><rect width="24.666666984558105" height="24.399999618530273" rx="3" ry="3"></rect><text x="0" y="0" transform="matrix(1,0,0,1,5,17.2)"><tspan class="quote">“</tspan><tspan>_</tspan><tspan class="quote">”</tspan></text></g></g></g></g></g><g class="match-fragment" transform="matrix(1,0,0,1,1455.6669,0)"><path d="M0,233.29999961853028q10,0 10,-10v-213.2999997973442q0,-10 10,-10h1990.000244140625q10,0 10,10v213.2999997973442q0,10 10,10"></path><g class="subexp" transform="matrix(1,0,0,1,15,10)"><rect class="subexp-box" rx="3" ry="3" transform="matrix(1,0,0,1,0,12)" width="2000.000244140625" height="344.5999755859375"></rect><text x="0" y="0" class="subexp-label" transform="matrix(1,0,0,1,0,12)"><tspan>group #11</tspan></text><g class="regexp match" transform="matrix(1,0,0,1,10,22)"><path d="M1495.0002660308837,201.29999961853028H1540.0002M1618.0002,201.29999961853028H1648.0002M1935.3336045410156,201.29999542236328H1955.3336"></path><g class="match-fragment" transform="matrix(1,0,0,1,0,0)"><path d="M0,201.29999961853028q10,0 10,-10v-181.2999997973442q0,-10 10,-10h1480.000244140625q10,0 10,10v181.2999997973442q0,10 10,10"></path><g class="subexp" transform="matrix(1,0,0,1,15,10)"><rect class="subexp-box" rx="3" ry="3" transform="matrix(1,0,0,1,0,12)" width="1490.000244140625" height="302.5999755859375"></rect><text x="0" y="0" class="subexp-label" transform="matrix(1,0,0,1,0,12)"><tspan>group #12</tspan></text><g class="regexp match" transform="matrix(1,0,0,1,10,22)"><path d="M985.0001660308837,169.29999961853028H1030.0002M1108.0002,169.29999961853028H1138.0002M1425.3336045410156,169.29999542236328H1445.3336"></path><g class="match-fragment" transform="matrix(1,0,0,1,0,0)"><path d="M0,169.29999961853028q10,0 10,-10v-149.2999997973442q0,-10 10,-10h970.0001831054688q10,0 10,10v149.2999997973442q0,10 10,10"></path><g class="subexp" transform="matrix(1,0,0,1,15,10)"><rect class="subexp-box" rx="3" ry="3" transform="matrix(1,0,0,1,0,12)" width="980.0001831054688" height="260.59999084472656"></rect><text x="0" y="0" class="subexp-label" transform="matrix(1,0,0,1,0,12)"><tspan>group #13</tspan></text><g class="regexp match" transform="matrix(1,0,0,1,10,22)"><path d="M475.0000660308838,137.29999961853028H520.0001M598.0001,137.29999961853028H628.0001M915.3335045410156,137.29999542236328H935.3335"></path><g class="match-fragment" transform="matrix(1,0,0,1,0,0)"><path d="M0,137.29999961853028q10,0 10,-10v-117.29999979734421q0,-10 10,-10h460.00006103515625q10,0 10,10v117.29999979734421q0,10 10,10"></path><g class="subexp" transform="matrix(1,0,0,1,15,10)"><rect class="subexp-box" rx="3" ry="3" transform="matrix(1,0,0,1,0,12)" width="470.00006103515625" height="218.59999084472656"></rect><text x="0" y="0" class="subexp-label" transform="matrix(1,0,0,1,0,12)"><tspan>group #14</tspan></text><g class="regexp match" transform="matrix(1,0,0,1,10,22)"><path d="M88,105.29999961853028H118M405.3334045410156,105.29999542236328H425.3334"></path><g class="match-fragment subexp" transform="matrix(1,0,0,1,0,56.4)"><rect class="subexp-box" rx="3" ry="3" transform="matrix(1,0,0,1,0,12)" width="98" height="73.79999923706055"></rect><text x="0" y="0" class="subexp-label" transform="matrix(1,0,0,1,0,12)"><tspan>group #15</tspan></text><g class="regexp" transform="matrix(1,0,0,1,10,22)"><path d="M0,26.899999618530273c10,0 10,-14.699999809265137 20,-14.699999809265137M78,26.899999618530273c-10,0 -10,-14.699999809265137 -20,-14.699999809265137M0,26.899999618530273c10,0 10,14.700000190734862 20,14.700000190734862M78,26.899999618530273c-10,0 -10,14.700000190734862 -20,14.700000190734862"></path><g class="regexp-matches" transform="matrix(1,0,0,1,20,0)"><path d="M0,12.199999809265137h3M35,12.199999809265137H38M0,41.599999809265135h0M38,41.599999809265135H38"></path><g class="match match-fragment literal" transform="matrix(1,0,0,1,3,0)"><g class="label"><rect width="32" height="24.399999618530273" rx="3" ry="3"></rect><text x="0" y="0" transform="matrix(1,0,0,1,5,17.2)"><tspan class="quote">“</tspan><tspan>prt</tspan><tspan class="quote">”</tspan></text></g></g><g class="match match-fragment literal" transform="matrix(1,0,0,1,0,29.4)"><g class="label"><rect width="38" height="24.399999618530273" rx="3" ry="3"></rect><text x="0" y="0" transform="matrix(1,0,0,1,5,17.2)"><tspan class="quote">“</tspan><tspan>agh</tspan><tspan class="quote">”</tspan></text></g></g></g></g></g><g class="match-fragment subexp" transform="matrix(1,0,0,1,108,0)"><rect class="subexp-box" rx="3" ry="3" transform="matrix(1,0,0,1,0,12)" width="307.3334045410156" height="186.59999084472656"></rect><text x="0" y="0" class="subexp-label" transform="matrix(1,0,0,1,0,12)"><tspan>group #16</tspan></text><g class="regexp" transform="matrix(1,0,0,1,10,22)"><path d="M10,71.19999980926514q0,-10 10,-10M277.3334045410156,71.19999980926514q0,-10 -10,-10M10,144.39999980926513q0,10 10,10M277.3334045410156,144.39999980926513q0,10 -10,10M0,83.29999542236328q10,0 10,-10V71.19999980926514M287.3334045410156,83.29999542236328q-10,0 -10,-10V71.19999980926514M0,83.29999542236328q10,0 10,10V144.39999980926513M287.3334045410156,83.29999542236328q-10,0 -10,10V144.39999980926513"></path><g class="regexp-matches" transform="matrix(1,0,0,1,20,0)"><path d="M0,61.19999980926514h10M207.33336639404297,61.19999980926514H247.33340454101562M0,154.39999980926513h108M139.3333339691162,154.39999980926513H247.33340454101562"></path><g class="match" transform="matrix(1,0,0,1,0,0)"><path d="M42,61.19999980926514H92"></path><g class="match-fragment" transform="matrix(1,0,0,1,0,49)"><path d="M10,12.199999809265137q-10,0 -10,10v2.1999998092651367q0,10 10,10h32q10,0 10,-10v-2.1999998092651367q0,-10 -10,-10M52,27.199999809265137l5,-5m-5,5l-5,-5"></path><g class="escape" transform="matrix(1,0,0,1,10,0)"><g class="label"><rect width="32" height="24.399999618530273" rx="3" ry="3"></rect><text x="0" y="0" transform="matrix(1,0,0,1,5,17.2)"><tspan>digit</tspan></text></g></g></g><g class="match-fragment" transform="matrix(1,0,0,1,67,0)"><path d="M0,61.19999980926514q10,0 10,-10v-41.19999998807907q0,-10 10,-10h140.33340454101562q10,0 10,10v41.19999998807907q0,10 10,10M15,61.19999980926514q-10,0 -10,10v41.60000306367874q0,10 10,10h150.33340454101562q10,0 10,-10v-41.60000306367874q0,-10 -10,-10M175.33340454101562,76.19999980926514l5,-5m-5,5l-5,-5"></path><g class="subexp" transform="matrix(1,0,0,1,15,10)"><rect class="subexp-box" rx="3" ry="3" transform="matrix(1,0,0,1,0,12)" width="150.33340454101562" height="90.80000305175781"></rect><text x="0" y="0" class="subexp-label" transform="matrix(1,0,0,1,0,12)"><tspan>group #17</tspan></text><g class="regexp match" transform="matrix(1,0,0,1,10,22)"><path d="M22,29.199999809265137H42"></path><g class="match-fragment literal" transform="matrix(1,0,0,1,0,17)"><g class="label"><rect width="22" height="24.399999618530273" rx="3" ry="3"></rect><text x="0" y="0" transform="matrix(1,0,0,1,5,17.2)"><tspan class="quote">“</tspan><tspan>-</tspan><tspan class="quote">”</tspan></text></g></g><g class="match-fragment" transform="matrix(1,0,0,1,32,0)"><path d="M10,29.199999809265137q-10,0 -10,10v7.19999772310257q0,10 10,10h73.33336639404297q10,0 10,-10v-7.19999772310257q0,-10 -10,-10M93.33336639404297,44.19999980926514l5,-5m-5,5l-5,-5"></path><g class="charset" transform="matrix(1,0,0,1,10,0)"><rect class="charset-box" rx="3" ry="3" transform="matrix(1,0,0,1,0,12)" width="73.33336639404297" height="34.39999961853027"></rect><text x="0" y="0" class="charset-label" transform="matrix(1,0,0,1,0,12)"><tspan>One of:</tspan></text><g transform="matrix(1,0,0,1,5,17)"><g class="charset-range" transform="matrix(1,0,0,1,0,0)"><text x="0" y="0" transform="matrix(1,0,0,1,29.6667,16.2)">-</text><g class="literal" transform="matrix(1,0,0,1,0,0)"><g class="label"><rect width="24.666666984558105" height="24.399999618530273" rx="3" ry="3"></rect><text x="0" y="0" transform="matrix(1,0,0,1,5,17.2)"><tspan class="quote">“</tspan><tspan>0</tspan><tspan class="quote">”</tspan></text></g></g><g class="literal" transform="matrix(1,0,0,1,38.6667,0)"><g class="label"><rect width="24.666666984558105" height="24.399999618530273" rx="3" ry="3"></rect><text x="0" y="0" transform="matrix(1,0,0,1,5,17.2)"><tspan class="quote">“</tspan><tspan>9</tspan><tspan class="quote">”</tspan></text></g></g></g></g></g><text x="0" y="0" class="repeat-label" transform="matrix(1,0,0,1,30.4834,68.4)"><tspan>at most 2 times</tspan><title><text x="0" y="0">repeats at most 3 times in total</text></title></text></g></g></g><text x="0" y="0" class="repeat-label" transform="matrix(1,0,0,1,107.4834,134.8)"><tspan>at most 2 times</tspan><title><text x="0" y="0">repeats at most 3 times in total</text></title></text></g></g><g class="match match-fragment literal" transform="matrix(1,0,0,1,108,142.2)"><g class="label"><rect width="31.33333396911621" height="24.399999618530273" rx="3" ry="3"></rect><text x="0" y="0" transform="matrix(1,0,0,1,5,17.2)"><tspan class="quote">“</tspan><tspan>1u</tspan><tspan class="quote">”</tspan></text></g></g></g></g></g><g class="match-fragment literal" transform="matrix(1,0,0,1,425.3334,93.1)"><g class="label"><rect width="24.666666984558105" height="24.399999618530273" rx="3" ry="3"></rect><text x="0" y="0" transform="matrix(1,0,0,1,5,17.2)"><tspan class="quote">“</tspan><tspan>_</tspan><tspan class="quote">”</tspan></text></g></g></g></g></g><g class="match-fragment subexp" transform="matrix(1,0,0,1,510.0001,88.4)"><rect class="subexp-box" rx="3" ry="3" transform="matrix(1,0,0,1,0,12)" width="98" height="73.79999923706055"></rect><text x="0" y="0" class="subexp-label" transform="matrix(1,0,0,1,0,12)"><tspan>group #18</tspan></text><g class="regexp" transform="matrix(1,0,0,1,10,22)"><path d="M0,26.899999618530273c10,0 10,-14.699999809265137 20,-14.699999809265137M78,26.899999618530273c-10,0 -10,-14.699999809265137 -20,-14.699999809265137M0,26.899999618530273c10,0 10,14.700000190734862 20,14.700000190734862M78,26.899999618530273c-10,0 -10,14.700000190734862 -20,14.700000190734862"></path><g class="regexp-matches" transform="matrix(1,0,0,1,20,0)"><path d="M0,12.199999809265137h4.3333M33.66663396911621,12.199999809265137H38M0,41.599999809265135h0M38,41.599999809265135H38"></path><g class="match match-fragment literal" transform="matrix(1,0,0,1,4.3333,0)"><g class="label"><rect width="29.33333396911621" height="24.399999618530273" rx="3" ry="3"></rect><text x="0" y="0" transform="matrix(1,0,0,1,5,17.2)"><tspan class="quote">“</tspan><tspan>liv</tspan><tspan class="quote">”</tspan></text></g></g><g class="match match-fragment literal" transform="matrix(1,0,0,1,0,29.4)"><g class="label"><rect width="38" height="24.399999618530273" rx="3" ry="3"></rect><text x="0" y="0" transform="matrix(1,0,0,1,5,17.2)"><tspan class="quote">“</tspan><tspan>agh</tspan><tspan class="quote">”</tspan></text></g></g></g></g></g><g class="match-fragment subexp" transform="matrix(1,0,0,1,618.0001,32)"><rect class="subexp-box" rx="3" ry="3" transform="matrix(1,0,0,1,0,12)" width="307.3334045410156" height="186.59999084472656"></rect><text x="0" y="0" class="subexp-label" transform="matrix(1,0,0,1,0,12)"><tspan>group #19</tspan></text><g class="regexp" transform="matrix(1,0,0,1,10,22)"><path d="M10,71.19999980926514q0,-10 10,-10M277.3334045410156,71.19999980926514q0,-10 -10,-10M10,144.39999980926513q0,10 10,10M277.3334045410156,144.39999980926513q0,10 -10,10M0,83.29999542236328q10,0 10,-10V71.19999980926514M287.3334045410156,83.29999542236328q-10,0 -10,-10V71.19999980926514M0,83.29999542236328q10,0 10,10V144.39999980926513M287.3334045410156,83.29999542236328q-10,0 -10,10V144.39999980926513"></path><g class="regexp-matches" transform="matrix(1,0,0,1,20,0)"><path d="M0,61.19999980926514h10M207.33336639404297,61.19999980926514H247.33340454101562M0,154.39999980926513h108M139.3333339691162,154.39999980926513H247.33340454101562"></path><g class="match" transform="matrix(1,0,0,1,0,0)"><path d="M42,61.19999980926514H92"></path><g class="match-fragment" transform="matrix(1,0,0,1,0,49)"><path d="M10,12.199999809265137q-10,0 -10,10v2.1999998092651367q0,10 10,10h32q10,0 10,-10v-2.1999998092651367q0,-10 -10,-10M52,27.199999809265137l5,-5m-5,5l-5,-5"></path><g class="escape" transform="matrix(1,0,0,1,10,0)"><g class="label"><rect width="32" height="24.399999618530273" rx="3" ry="3"></rect><text x="0" y="0" transform="matrix(1,0,0,1,5,17.2)"><tspan>digit</tspan></text></g></g></g><g class="match-fragment" transform="matrix(1,0,0,1,67,0)"><path d="M0,61.19999980926514q10,0 10,-10v-41.19999998807907q0,-10 10,-10h140.33340454101562q10,0 10,10v41.19999998807907q0,10 10,10M15,61.19999980926514q-10,0 -10,10v41.60000306367874q0,10 10,10h150.33340454101562q10,0 10,-10v-41.60000306367874q0,-10 -10,-10M175.33340454101562,76.19999980926514l5,-5m-5,5l-5,-5"></path><g class="subexp" transform="matrix(1,0,0,1,15,10)"><rect class="subexp-box" rx="3" ry="3" transform="matrix(1,0,0,1,0,12)" width="150.33340454101562" height="90.80000305175781"></rect><text x="0" y="0" class="subexp-label" transform="matrix(1,0,0,1,0,12)"><tspan>group #20</tspan></text><g class="regexp match" transform="matrix(1,0,0,1,10,22)"><path d="M22,29.199999809265137H42"></path><g class="match-fragment literal" transform="matrix(1,0,0,1,0,17)"><g class="label"><rect width="22" height="24.399999618530273" rx="3" ry="3"></rect><text x="0" y="0" transform="matrix(1,0,0,1,5,17.2)"><tspan class="quote">“</tspan><tspan>-</tspan><tspan class="quote">”</tspan></text></g></g><g class="match-fragment" transform="matrix(1,0,0,1,32,0)"><path d="M10,29.199999809265137q-10,0 -10,10v7.19999772310257q0,10 10,10h73.33336639404297q10,0 10,-10v-7.19999772310257q0,-10 -10,-10M93.33336639404297,44.19999980926514l5,-5m-5,5l-5,-5"></path><g class="charset" transform="matrix(1,0,0,1,10,0)"><rect class="charset-box" rx="3" ry="3" transform="matrix(1,0,0,1,0,12)" width="73.33336639404297" height="34.39999961853027"></rect><text x="0" y="0" class="charset-label" transform="matrix(1,0,0,1,0,12)"><tspan>One of:</tspan></text><g transform="matrix(1,0,0,1,5,17)"><g class="charset-range" transform="matrix(1,0,0,1,0,0)"><text x="0" y="0" transform="matrix(1,0,0,1,29.6667,16.2)">-</text><g class="literal" transform="matrix(1,0,0,1,0,0)"><g class="label"><rect width="24.666666984558105" height="24.399999618530273" rx="3" ry="3"></rect><text x="0" y="0" transform="matrix(1,0,0,1,5,17.2)"><tspan class="quote">“</tspan><tspan>0</tspan><tspan class="quote">”</tspan></text></g></g><g class="literal" transform="matrix(1,0,0,1,38.6667,0)"><g class="label"><rect width="24.666666984558105" height="24.399999618530273" rx="3" ry="3"></rect><text x="0" y="0" transform="matrix(1,0,0,1,5,17.2)"><tspan class="quote">“</tspan><tspan>9</tspan><tspan class="quote">”</tspan></text></g></g></g></g></g><text x="0" y="0" class="repeat-label" transform="matrix(1,0,0,1,30.4834,68.4)"><tspan>at most 2 times</tspan><title><text x="0" y="0">repeats at most 3 times in total</text></title></text></g></g></g><text x="0" y="0" class="repeat-label" transform="matrix(1,0,0,1,107.4834,134.8)"><tspan>at most 2 times</tspan><title><text x="0" y="0">repeats at most 3 times in total</text></title></text></g></g><g class="match match-fragment literal" transform="matrix(1,0,0,1,108,142.2)"><g class="label"><rect width="31.33333396911621" height="24.399999618530273" rx="3" ry="3"></rect><text x="0" y="0" transform="matrix(1,0,0,1,5,17.2)"><tspan class="quote">“</tspan><tspan>1u</tspan><tspan class="quote">”</tspan></text></g></g></g></g></g><g class="match-fragment literal" transform="matrix(1,0,0,1,935.3335,125.1)"><g class="label"><rect width="24.666666984558105" height="24.399999618530273" rx="3" ry="3"></rect><text x="0" y="0" transform="matrix(1,0,0,1,5,17.2)"><tspan class="quote">“</tspan><tspan>_</tspan><tspan class="quote">”</tspan></text></g></g></g></g></g><g class="match-fragment subexp" transform="matrix(1,0,0,1,1020.0002,120.4)"><rect class="subexp-box" rx="3" ry="3" transform="matrix(1,0,0,1,0,12)" width="98" height="73.79999923706055"></rect><text x="0" y="0" class="subexp-label" transform="matrix(1,0,0,1,0,12)"><tspan>group #21</tspan></text><g class="regexp" transform="matrix(1,0,0,1,10,22)"><path d="M0,26.899999618530273c10,0 10,-14.699999809265137 20,-14.699999809265137M78,26.899999618530273c-10,0 -10,-14.699999809265137 -20,-14.699999809265137M0,26.899999618530273c10,0 10,14.700000190734862 20,14.700000190734862M78,26.899999618530273c-10,0 -10,14.700000190734862 -20,14.700000190734862"></path><g class="regexp-matches" transform="matrix(1,0,0,1,20,0)"><path d="M0,12.199999809265137h5.3333M32.66663396911621,12.199999809265137H38M0,41.599999809265135h0M38,41.599999809265135H38"></path><g class="match match-fragment literal" transform="matrix(1,0,0,1,5.3333,0)"><g class="label"><rect width="27.33333396911621" height="24.399999618530273" rx="3" ry="3"></rect><text x="0" y="0" transform="matrix(1,0,0,1,5,17.2)"><tspan class="quote">“</tspan><tspan>tit</tspan><tspan class="quote">”</tspan></text></g></g><g class="match match-fragment literal" transform="matrix(1,0,0,1,0,29.4)"><g class="label"><rect width="38" height="24.399999618530273" rx="3" ry="3"></rect><text x="0" y="0" transform="matrix(1,0,0,1,5,17.2)"><tspan class="quote">“</tspan><tspan>agh</tspan><tspan class="quote">”</tspan></text></g></g></g></g></g><g class="match-fragment subexp" transform="matrix(1,0,0,1,1128.0002,64)"><rect class="subexp-box" rx="3" ry="3" transform="matrix(1,0,0,1,0,12)" width="307.3334045410156" height="186.59999084472656"></rect><text x="0" y="0" class="subexp-label" transform="matrix(1,0,0,1,0,12)"><tspan>group #22</tspan></text><g class="regexp" transform="matrix(1,0,0,1,10,22)"><path d="M10,71.19999980926514q0,-10 10,-10M277.3334045410156,71.19999980926514q0,-10 -10,-10M10,144.39999980926513q0,10 10,10M277.3334045410156,144.39999980926513q0,10 -10,10M0,83.29999542236328q10,0 10,-10V71.19999980926514M287.3334045410156,83.29999542236328q-10,0 -10,-10V71.19999980926514M0,83.29999542236328q10,0 10,10V144.39999980926513M287.3334045410156,83.29999542236328q-10,0 -10,10V144.39999980926513"></path><g class="regexp-matches" transform="matrix(1,0,0,1,20,0)"><path d="M0,61.19999980926514h10M207.33336639404297,61.19999980926514H247.33340454101562M0,154.39999980926513h108M139.3333339691162,154.39999980926513H247.33340454101562"></path><g class="match" transform="matrix(1,0,0,1,0,0)"><path d="M42,61.19999980926514H92"></path><g class="match-fragment" transform="matrix(1,0,0,1,0,49)"><path d="M10,12.199999809265137q-10,0 -10,10v2.1999998092651367q0,10 10,10h32q10,0 10,-10v-2.1999998092651367q0,-10 -10,-10M52,27.199999809265137l5,-5m-5,5l-5,-5"></path><g class="escape" transform="matrix(1,0,0,1,10,0)"><g class="label"><rect width="32" height="24.399999618530273" rx="3" ry="3"></rect><text x="0" y="0" transform="matrix(1,0,0,1,5,17.2)"><tspan>digit</tspan></text></g></g></g><g class="match-fragment" transform="matrix(1,0,0,1,67,0)"><path d="M0,61.19999980926514q10,0 10,-10v-41.19999998807907q0,-10 10,-10h140.33340454101562q10,0 10,10v41.19999998807907q0,10 10,10M15,61.19999980926514q-10,0 -10,10v41.60000306367874q0,10 10,10h150.33340454101562q10,0 10,-10v-41.60000306367874q0,-10 -10,-10M175.33340454101562,76.19999980926514l5,-5m-5,5l-5,-5"></path><g class="subexp" transform="matrix(1,0,0,1,15,10)"><rect class="subexp-box" rx="3" ry="3" transform="matrix(1,0,0,1,0,12)" width="150.33340454101562" height="90.80000305175781"></rect><text x="0" y="0" class="subexp-label" transform="matrix(1,0,0,1,0,12)"><tspan>group #23</tspan></text><g class="regexp match" transform="matrix(1,0,0,1,10,22)"><path d="M22,29.199999809265137H42"></path><g class="match-fragment literal" transform="matrix(1,0,0,1,0,17)"><g class="label"><rect width="22" height="24.399999618530273" rx="3" ry="3"></rect><text x="0" y="0" transform="matrix(1,0,0,1,5,17.2)"><tspan class="quote">“</tspan><tspan>-</tspan><tspan class="quote">”</tspan></text></g></g><g class="match-fragment" transform="matrix(1,0,0,1,32,0)"><path d="M10,29.199999809265137q-10,0 -10,10v7.19999772310257q0,10 10,10h73.33336639404297q10,0 10,-10v-7.19999772310257q0,-10 -10,-10M93.33336639404297,44.19999980926514l5,-5m-5,5l-5,-5"></path><g class="charset" transform="matrix(1,0,0,1,10,0)"><rect class="charset-box" rx="3" ry="3" transform="matrix(1,0,0,1,0,12)" width="73.33336639404297" height="34.39999961853027"></rect><text x="0" y="0" class="charset-label" transform="matrix(1,0,0,1,0,12)"><tspan>One of:</tspan></text><g transform="matrix(1,0,0,1,5,17)"><g class="charset-range" transform="matrix(1,0,0,1,0,0)"><text x="0" y="0" transform="matrix(1,0,0,1,29.6667,16.2)">-</text><g class="literal" transform="matrix(1,0,0,1,0,0)"><g class="label"><rect width="24.666666984558105" height="24.399999618530273" rx="3" ry="3"></rect><text x="0" y="0" transform="matrix(1,0,0,1,5,17.2)"><tspan class="quote">“</tspan><tspan>0</tspan><tspan class="quote">”</tspan></text></g></g><g class="literal" transform="matrix(1,0,0,1,38.6667,0)"><g class="label"><rect width="24.666666984558105" height="24.399999618530273" rx="3" ry="3"></rect><text x="0" y="0" transform="matrix(1,0,0,1,5,17.2)"><tspan class="quote">“</tspan><tspan>9</tspan><tspan class="quote">”</tspan></text></g></g></g></g></g><text x="0" y="0" class="repeat-label" transform="matrix(1,0,0,1,30.4834,68.4)"><tspan>at most 2 times</tspan><title><text x="0" y="0">repeats at most 3 times in total</text></title></text></g></g></g><text x="0" y="0" class="repeat-label" transform="matrix(1,0,0,1,107.4834,134.8)"><tspan>at most 2 times</tspan><title><text x="0" y="0">repeats at most 3 times in total</text></title></text></g></g><g class="match match-fragment literal" transform="matrix(1,0,0,1,108,142.2)"><g class="label"><rect width="31.33333396911621" height="24.399999618530273" rx="3" ry="3"></rect><text x="0" y="0" transform="matrix(1,0,0,1,5,17.2)"><tspan class="quote">“</tspan><tspan>1u</tspan><tspan class="quote">”</tspan></text></g></g></g></g></g><g class="match-fragment literal" transform="matrix(1,0,0,1,1445.3336,157.1)"><g class="label"><rect width="24.666666984558105" height="24.399999618530273" rx="3" ry="3"></rect><text x="0" y="0" transform="matrix(1,0,0,1,5,17.2)"><tspan class="quote">“</tspan><tspan>_</tspan><tspan class="quote">”</tspan></text></g></g></g></g></g><g class="match-fragment subexp" transform="matrix(1,0,0,1,1530.0002,152.4)"><rect class="subexp-box" rx="3" ry="3" transform="matrix(1,0,0,1,0,12)" width="98" height="73.79999923706055"></rect><text x="0" y="0" class="subexp-label" transform="matrix(1,0,0,1,0,12)"><tspan>group #24</tspan></text><g class="regexp" transform="matrix(1,0,0,1,10,22)"><path d="M0,26.899999618530273c10,0 10,-14.699999809265137 20,-14.699999809265137M78,26.899999618530273c-10,0 -10,-14.699999809265137 -20,-14.699999809265137M0,26.899999618530273c10,0 10,14.700000190734862 20,14.700000190734862M78,26.899999618530273c-10,0 -10,14.700000190734862 -20,14.700000190734862"></path><g class="regexp-matches" transform="matrix(1,0,0,1,20,0)"><path d="M0,12.199999809265137h3.6667M34.33336603088379,12.199999809265137H38M0,41.599999809265135h0M38,41.599999809265135H38"></path><g class="match match-fragment literal" transform="matrix(1,0,0,1,3.6667,0)"><g class="label"><rect width="30.66666603088379" height="24.399999618530273" rx="3" ry="3"></rect><text x="0" y="0" transform="matrix(1,0,0,1,5,17.2)"><tspan class="quote">“</tspan><tspan>stt</tspan><tspan class="quote">”</tspan></text></g></g><g class="match match-fragment literal" transform="matrix(1,0,0,1,0,29.4)"><g class="label"><rect width="38" height="24.399999618530273" rx="3" ry="3"></rect><text x="0" y="0" transform="matrix(1,0,0,1,5,17.2)"><tspan class="quote">“</tspan><tspan>agh</tspan><tspan class="quote">”</tspan></text></g></g></g></g></g><g class="match-fragment subexp" transform="matrix(1,0,0,1,1638.0002,96)"><rect class="subexp-box" rx="3" ry="3" transform="matrix(1,0,0,1,0,12)" width="307.3334045410156" height="186.59999084472656"></rect><text x="0" y="0" class="subexp-label" transform="matrix(1,0,0,1,0,12)"><tspan>group #25</tspan></text><g class="regexp" transform="matrix(1,0,0,1,10,22)"><path d="M10,71.19999980926514q0,-10 10,-10M277.3334045410156,71.19999980926514q0,-10 -10,-10M10,144.39999980926513q0,10 10,10M277.3334045410156,144.39999980926513q0,10 -10,10M0,83.29999542236328q10,0 10,-10V71.19999980926514M287.3334045410156,83.29999542236328q-10,0 -10,-10V71.19999980926514M0,83.29999542236328q10,0 10,10V144.39999980926513M287.3334045410156,83.29999542236328q-10,0 -10,10V144.39999980926513"></path><g class="regexp-matches" transform="matrix(1,0,0,1,20,0)"><path d="M0,61.19999980926514h10M207.33336639404297,61.19999980926514H247.33340454101562M0,154.39999980926513h108M139.3333339691162,154.39999980926513H247.33340454101562"></path><g class="match" transform="matrix(1,0,0,1,0,0)"><path d="M42,61.19999980926514H92"></path><g class="match-fragment" transform="matrix(1,0,0,1,0,49)"><path d="M10,12.199999809265137q-10,0 -10,10v2.1999998092651367q0,10 10,10h32q10,0 10,-10v-2.1999998092651367q0,-10 -10,-10M52,27.199999809265137l5,-5m-5,5l-5,-5"></path><g class="escape" transform="matrix(1,0,0,1,10,0)"><g class="label"><rect width="32" height="24.399999618530273" rx="3" ry="3"></rect><text x="0" y="0" transform="matrix(1,0,0,1,5,17.2)"><tspan>digit</tspan></text></g></g></g><g class="match-fragment" transform="matrix(1,0,0,1,67,0)"><path d="M0,61.19999980926514q10,0 10,-10v-41.19999998807907q0,-10 10,-10h140.33340454101562q10,0 10,10v41.19999998807907q0,10 10,10M15,61.19999980926514q-10,0 -10,10v41.60000306367874q0,10 10,10h150.33340454101562q10,0 10,-10v-41.60000306367874q0,-10 -10,-10M175.33340454101562,76.19999980926514l5,-5m-5,5l-5,-5"></path><g class="subexp" transform="matrix(1,0,0,1,15,10)"><rect class="subexp-box" rx="3" ry="3" transform="matrix(1,0,0,1,0,12)" width="150.33340454101562" height="90.80000305175781"></rect><text x="0" y="0" class="subexp-label" transform="matrix(1,0,0,1,0,12)"><tspan>group #26</tspan></text><g class="regexp match" transform="matrix(1,0,0,1,10,22)"><path d="M22,29.199999809265137H42"></path><g class="match-fragment literal" transform="matrix(1,0,0,1,0,17)"><g class="label"><rect width="22" height="24.399999618530273" rx="3" ry="3"></rect><text x="0" y="0" transform="matrix(1,0,0,1,5,17.2)"><tspan class="quote">“</tspan><tspan>-</tspan><tspan class="quote">”</tspan></text></g></g><g class="match-fragment" transform="matrix(1,0,0,1,32,0)"><path d="M10,29.199999809265137q-10,0 -10,10v7.19999772310257q0,10 10,10h73.33336639404297q10,0 10,-10v-7.19999772310257q0,-10 -10,-10M93.33336639404297,44.19999980926514l5,-5m-5,5l-5,-5"></path><g class="charset" transform="matrix(1,0,0,1,10,0)"><rect class="charset-box" rx="3" ry="3" transform="matrix(1,0,0,1,0,12)" width="73.33336639404297" height="34.39999961853027"></rect><text x="0" y="0" class="charset-label" transform="matrix(1,0,0,1,0,12)"><tspan>One of:</tspan></text><g transform="matrix(1,0,0,1,5,17)"><g class="charset-range" transform="matrix(1,0,0,1,0,0)"><text x="0" y="0" transform="matrix(1,0,0,1,29.6667,16.2)">-</text><g class="literal" transform="matrix(1,0,0,1,0,0)"><g class="label"><rect width="24.666666984558105" height="24.399999618530273" rx="3" ry="3"></rect><text x="0" y="0" transform="matrix(1,0,0,1,5,17.2)"><tspan class="quote">“</tspan><tspan>0</tspan><tspan class="quote">”</tspan></text></g></g><g class="literal" transform="matrix(1,0,0,1,38.6667,0)"><g class="label"><rect width="24.666666984558105" height="24.399999618530273" rx="3" ry="3"></rect><text x="0" y="0" transform="matrix(1,0,0,1,5,17.2)"><tspan class="quote">“</tspan><tspan>9</tspan><tspan class="quote">”</tspan></text></g></g></g></g></g><text x="0" y="0" class="repeat-label" transform="matrix(1,0,0,1,30.4834,68.4)"><tspan>at most 2 times</tspan><title><text x="0" y="0">repeats at most 3 times in total</text></title></text></g></g></g><text x="0" y="0" class="repeat-label" transform="matrix(1,0,0,1,107.4834,134.8)"><tspan>at most 2 times</tspan><title><text x="0" y="0">repeats at most 3 times in total</text></title></text></g></g><g class="match match-fragment literal" transform="matrix(1,0,0,1,108,142.2)"><g class="label"><rect width="31.33333396911621" height="24.399999618530273" rx="3" ry="3"></rect><text x="0" y="0" transform="matrix(1,0,0,1,5,17.2)"><tspan class="quote">“</tspan><tspan>1u</tspan><tspan class="quote">”</tspan></text></g></g></g></g></g><g class="match-fragment literal" transform="matrix(1,0,0,1,1955.3336,189.1)"><g class="label"><rect width="24.666666984558105" height="24.399999618530273" rx="3" ry="3"></rect><text x="0" y="0" transform="matrix(1,0,0,1,5,17.2)"><tspan class="quote">“</tspan><tspan>_</tspan><tspan class="quote">”</tspan></text></g></g></g></g></g><g class="match-fragment subexp" transform="matrix(1,0,0,1,3495.6671,184.4)"><rect class="subexp-box" rx="3" ry="3" transform="matrix(1,0,0,1,0,12)" width="98" height="73.79999923706055"></rect><text x="0" y="0" class="subexp-label" transform="matrix(1,0,0,1,0,12)"><tspan>group #27</tspan></text><g class="regexp" transform="matrix(1,0,0,1,10,22)"><path d="M0,26.899999618530273c10,0 10,-14.699999809265137 20,-14.699999809265137M78,26.899999618530273c-10,0 -10,-14.699999809265137 -20,-14.699999809265137M0,26.899999618530273c10,0 10,14.700000190734862 20,14.700000190734862M78,26.899999618530273c-10,0 -10,14.700000190734862 -20,14.700000190734862"></path><g class="regexp-matches" transform="matrix(1,0,0,1,20,0)"><path d="M0,12.199999809265137h0.3333M37.66663206176758,12.199999809265137H38M0,41.599999809265135h0M38,41.599999809265135H38"></path><g class="match match-fragment literal" transform="matrix(1,0,0,1,0.3333,0)"><g class="label"><rect width="37.33333396911621" height="24.399999618530273" rx="3" ry="3"></rect><text x="0" y="0" transform="matrix(1,0,0,1,5,17.2)"><tspan class="quote">“</tspan><tspan>cap</tspan><tspan class="quote">”</tspan></text></g></g><g class="match match-fragment literal" transform="matrix(1,0,0,1,0,29.4)"><g class="label"><rect width="38" height="24.399999618530273" rx="3" ry="3"></rect><text x="0" y="0" transform="matrix(1,0,0,1,5,17.2)"><tspan class="quote">“</tspan><tspan>agh</tspan><tspan class="quote">”</tspan></text></g></g></g></g></g><g class="match-fragment subexp" transform="matrix(1,0,0,1,3603.6671,128)"><rect class="subexp-box" rx="3" ry="3" transform="matrix(1,0,0,1,0,12)" width="307.3334045410156" height="186.59999084472656"></rect><text x="0" y="0" class="subexp-label" transform="matrix(1,0,0,1,0,12)"><tspan>group #28</tspan></text><g class="regexp" transform="matrix(1,0,0,1,10,22)"><path d="M10,71.19999980926514q0,-10 10,-10M277.3334045410156,71.19999980926514q0,-10 -10,-10M10,144.39999980926513q0,10 10,10M277.3334045410156,144.39999980926513q0,10 -10,10M0,83.29999542236328q10,0 10,-10V71.19999980926514M287.3334045410156,83.29999542236328q-10,0 -10,-10V71.19999980926514M0,83.29999542236328q10,0 10,10V144.39999980926513M287.3334045410156,83.29999542236328q-10,0 -10,10V144.39999980926513"></path><g class="regexp-matches" transform="matrix(1,0,0,1,20,0)"><path d="M0,61.19999980926514h10M207.33336639404297,61.19999980926514H247.33340454101562M0,154.39999980926513h108M139.3333339691162,154.39999980926513H247.33340454101562"></path><g class="match" transform="matrix(1,0,0,1,0,0)"><path d="M42,61.19999980926514H92"></path><g class="match-fragment" transform="matrix(1,0,0,1,0,49)"><path d="M10,12.199999809265137q-10,0 -10,10v2.1999998092651367q0,10 10,10h32q10,0 10,-10v-2.1999998092651367q0,-10 -10,-10M52,27.199999809265137l5,-5m-5,5l-5,-5"></path><g class="escape" transform="matrix(1,0,0,1,10,0)"><g class="label"><rect width="32" height="24.399999618530273" rx="3" ry="3"></rect><text x="0" y="0" transform="matrix(1,0,0,1,5,17.2)"><tspan>digit</tspan></text></g></g></g><g class="match-fragment" transform="matrix(1,0,0,1,67,0)"><path d="M0,61.19999980926514q10,0 10,-10v-41.19999998807907q0,-10 10,-10h140.33340454101562q10,0 10,10v41.19999998807907q0,10 10,10M15,61.19999980926514q-10,0 -10,10v41.60000306367874q0,10 10,10h150.33340454101562q10,0 10,-10v-41.60000306367874q0,-10 -10,-10M175.33340454101562,76.19999980926514l5,-5m-5,5l-5,-5"></path><g class="subexp" transform="matrix(1,0,0,1,15,10)"><rect class="subexp-box" rx="3" ry="3" transform="matrix(1,0,0,1,0,12)" width="150.33340454101562" height="90.80000305175781"></rect><text x="0" y="0" class="subexp-label" transform="matrix(1,0,0,1,0,12)"><tspan>group #29</tspan></text><g class="regexp match" transform="matrix(1,0,0,1,10,22)"><path d="M22,29.199999809265137H42"></path><g class="match-fragment literal" transform="matrix(1,0,0,1,0,17)"><g class="label"><rect width="22" height="24.399999618530273" rx="3" ry="3"></rect><text x="0" y="0" transform="matrix(1,0,0,1,5,17.2)"><tspan class="quote">“</tspan><tspan>-</tspan><tspan class="quote">”</tspan></text></g></g><g class="match-fragment" transform="matrix(1,0,0,1,32,0)"><path d="M10,29.199999809265137q-10,0 -10,10v7.19999772310257q0,10 10,10h73.33336639404297q10,0 10,-10v-7.19999772310257q0,-10 -10,-10M93.33336639404297,44.19999980926514l5,-5m-5,5l-5,-5"></path><g class="charset" transform="matrix(1,0,0,1,10,0)"><rect class="charset-box" rx="3" ry="3" transform="matrix(1,0,0,1,0,12)" width="73.33336639404297" height="34.39999961853027"></rect><text x="0" y="0" class="charset-label" transform="matrix(1,0,0,1,0,12)"><tspan>One of:</tspan></text><g transform="matrix(1,0,0,1,5,17)"><g class="charset-range" transform="matrix(1,0,0,1,0,0)"><text x="0" y="0" transform="matrix(1,0,0,1,29.6667,16.2)">-</text><g class="literal" transform="matrix(1,0,0,1,0,0)"><g class="label"><rect width="24.666666984558105" height="24.399999618530273" rx="3" ry="3"></rect><text x="0" y="0" transform="matrix(1,0,0,1,5,17.2)"><tspan class="quote">“</tspan><tspan>0</tspan><tspan class="quote">”</tspan></text></g></g><g class="literal" transform="matrix(1,0,0,1,38.6667,0)"><g class="label"><rect width="24.666666984558105" height="24.399999618530273" rx="3" ry="3"></rect><text x="0" y="0" transform="matrix(1,0,0,1,5,17.2)"><tspan class="quote">“</tspan><tspan>9</tspan><tspan class="quote">”</tspan></text></g></g></g></g></g><text x="0" y="0" class="repeat-label" transform="matrix(1,0,0,1,30.4834,68.4)"><tspan>at most 2 times</tspan><title><text x="0" y="0">repeats at most 3 times in total</text></title></text></g></g></g><text x="0" y="0" class="repeat-label" transform="matrix(1,0,0,1,107.4834,134.8)"><tspan>at most 2 times</tspan><title><text x="0" y="0">repeats at most 3 times in total</text></title></text></g></g><g class="match match-fragment literal" transform="matrix(1,0,0,1,108,142.2)"><g class="label"><rect width="31.33333396911621" height="24.399999618530273" rx="3" ry="3"></rect><text x="0" y="0" transform="matrix(1,0,0,1,5,17.2)"><tspan class="quote">“</tspan><tspan>1u</tspan><tspan class="quote">”</tspan></text></g></g></g></g></g></g><path d="M35,233.29999980926516H0M3911.0005045410157,233.29999980926516H3931.00048828125"></path><circle cx="0" cy="233.29999980926516" r="5"></circle><circle cx="3931.00048828125" cy="233.29999980926516" r="5"></circle></g></svg>
        